/* XPM */
static char *_397940a1efe414eb5a21aabe8a6b05d1mdeCR1Jb55EY9Mo[] = {
/* columns rows colors chars-per-pixel */
"64 64 205 2 ",
"   c None",
".  c #000000",
"X  c #001800",
"o  c #002B02",
"O  c #002300",
"+  c #003500",
"@  c #003A00",
"#  c #003D09",
"$  c #003618",
"%  c #0F2918",
"&  c #004501",
"*  c #004D00",
"=  c #004D0C",
"-  c #00420A",
";  c #005201",
":  c #005C00",
">  c #005C0A",
",  c #00560D",
"<  c #00431D",
"1  c #004C16",
"2  c #005212",
"3  c #00501A",
"4  c #006400",
"5  c #006C00",
"6  c #006A0A",
"7  c #007400",
"8  c #007C00",
"9  c #00720D",
"0  c #007A0B",
"q  c #00671C",
"w  c #007B12",
"e  c #007617",
"r  c #004E29",
"t  c #005B29",
"y  c #005220",
"u  c #065837",
"i  c #124B33",
"p  c #006E25",
"a  c #006321",
"s  c #007A27",
"d  c #006E3C",
"f  c #006A31",
"g  c #007536",
"h  c #007D34",
"j  c #007D3A",
"k  c #00743A",
"l  c #008400",
"z  c #008B00",
"x  c #008D0F",
"c  c #009400",
"v  c #009B00",
"b  c #009D0A",
"n  c #009109",
"m  c #008616",
"M  c #008B14",
"N  c #008C1F",
"B  c #009D1E",
"V  c #009E14",
"C  c #00A300",
"Z  c #00AB00",
"A  c #00A50B",
"S  c #00AA0C",
"D  c #00B300",
"F  c #00BC00",
"G  c #00B30A",
"H  c #00B80B",
"J  c #00A316",
"K  c #00AB14",
"L  c #00A31C",
"P  c #00AB1C",
"I  c #00B11D",
"U  c #00BD11",
"Y  c #008A24",
"T  c #008225",
"R  c #009323",
"E  c #009F23",
"W  c #00912A",
"Q  c #009B2D",
"!  c #008439",
"~  c #009335",
"^  c #009D34",
"/  c #009B3C",
"(  c #009239",
")  c #00A522",
"_  c #00AB24",
"`  c #00A42D",
"'  c #00AB2A",
"]  c #00B323",
"[  c #00B12E",
"{  c #00B821",
"}  c #00A531",
"|  c #00AC32",
" . c #00A53B",
".. c #00A93E",
"X. c #00B434",
"o. c #00B23B",
"O. c #00BB3C",
"+. c #00BA32",
"@. c #00C500",
"#. c #00C21C",
"$. c #00C718",
"%. c #00C625",
"&. c #00DA25",
"*. c #00C234",
"=. c #008C41",
"-. c #008B47",
";. c #009A43",
":. c #009B4C",
">. c #00924D",
",. c #008E54",
"<. c #008D5A",
"1. c #009A58",
"2. c #00A344",
"3. c #00AD43",
"4. c #00A14C",
"5. c #00AB4B",
"6. c #00B344",
"7. c #00B942",
"8. c #00B24B",
"9. c #00BA4D",
"0. c #00A652",
"q. c #00AD53",
"w. c #00A15D",
"e. c #00AC5C",
"r. c #00B554",
"t. c #00BA55",
"y. c #00B35C",
"u. c #00BA5A",
"i. c #008B65",
"p. c #00996B",
"a. c #358B6A",
"s. c #3C9A77",
"d. c #00A566",
"f. c #00AA63",
"g. c #00A26C",
"h. c #00AA69",
"j. c #00BD66",
"k. c #00B46C",
"l. c #00BA6A",
"z. c #00B473",
"x. c #00BE74",
"c. c #00BE79",
"v. c #2DA078",
"b. c #2CBB7F",
"n. c #32B97D",
"m. c #32A37C",
"M. c #55BE7E",
"N. c #4BBA76",
"B. c #00C14E",
"V. c #00CA4C",
"C. c #00C444",
"Z. c #00D54D",
"A. c #00C55F",
"S. c #00C465",
"D. c #00C16B",
"F. c #00C96B",
"G. c #00C472",
"H. c #00CC75",
"J. c #00C17A",
"K. c #00C87F",
"L. c #13C27A",
"P. c #00B681",
"I. c #31B780",
"U. c #7E8880",
"Y. c #6D9C80",
"T. c #50AE87",
"R. c #5CB587",
"E. c #69A588",
"W. c #71A189",
"Q. c #64B189",
"!. c #76B997",
"~. c #00C382",
"^. c #00C88E",
"/. c #00D28D",
"(. c #3ACD90",
"). c #2FC596",
"_. c #4BC98D",
"`. c #52C88E",
"'. c #68CA9B",
"]. c #77C39C",
"[. c #829F92",
"{. c #87A993",
"}. c #9FA1A0",
"|. c #9BB7A5",
" X c #B2BCB4",
".X c #A6ACA5",
"XX c #C3B6BD",
"oX c #C5BBBE",
"OX c #95C8A9",
"+X c #ACC4B7",
"@X c #B5C1B5",
"#X c #C2C3BE",
"$X c #CBBBC4",
"%X c #CBB7C3",
"&X c #DFB6CD",
"*X c #FFB7E4",
"=X c #FCBDE2",
"-X c #BDC2C4",
";X c #C6C7C7",
":X c #DCC3D3",
">X c #E5CBCB",
",X c #EFC5DD",
"<X c #FFC2E7",
"1X c #F8D9E8",
"2X c #FBCFF1",
/* pixels */
"                                                                                                                                ",
"                                                                                                                                ",
"                                                                                                                                ",
"                                                v v Z b t r l v C Z ' P.5.c v D D                                               ",
"                                              c v v C v a t l c c c J z...l z Z Z                                               ",
"                                                6.J z c 6.t.v c 7 ; m V.^ = > c v                                               ",
"                                                8.P z v B.A.v z 7 & w V.Q & ; c v                                               ",
"                                                7.B 4 5 6 6 ^ 9.2./ 5.A.z.}.[.e 5                                               ",
"                                              ' +.x & & + o ;.H.l.j.c.L.].,X$Xt &                                               ",
"                                              J.[  .m Y =.! e.G.o.D I { t.:X XY l                                               ",
"                                              ^.8.j.F.H.OX+X_.).F F D Z D 2X;X+.F                                               ",
"                                              ~.o.6.] [ r.t.6.q.C v C Z ] ;XOX) v                                               ",
"                                              G._ G Z Z D D c l 8 4 z D [ `.L.M 8                                               ",
"                                              J.| I C Z D D c z l 5 z C ' `.J.x l                                               ",
"                                              _.j.3.8 z Z D z 8 8 8 7 ; w S.t.C v                                               ",
"                                              `.j.3.8 l C Z z 8 8 8 5 * 9 S.r.C v                                               ",
"                                              ~. .3.' ) z z 7 q 5 4 8 J ` j.y.7 4                                               ",
"                                              ~.o.6.X.' 8 8 : r ; * 8 D P t.5.: *                                               ",
"                                              d.7 ~ k.q.z z W >.~ N 2.x.z.!.R.z l                                               ",
"                                              j o s OXR.c z t./.K.G.'.>X>X*X&XD D                                               ",
"                                                ; g a.,.C v A _ P A o.c.z.E.m.c n                                               ",
"                                                s.2 < u B.C.Z C C v Z *.| h =.p.                                                ",
"                                                        9 e 5 4 5 5 7 s q                                                       ",
"                                                        # # X X o + @ < +                                                       ",
"                                                        > ; 4 4 4 4 : , ;                                                       ",
"                                                        * ; o.V.v c 8 * ;                                                       ",
"                                                        4 4 ` 7.v c l 4 4                                                       ",
"                                                        C C ' 3.Z D Z v v                                                       ",
"                                                        C C ' 3.Z D Z v v                                                       ",
"                                                        v v | 6.v z v Z C                                                       ",
"                                                        _ P | 6.c 8 v F D                                                       ",
"                                                        w 0 | 7.8 : 8 v c                                                       ",
"                                                        & * } C.4 O : c l                                                       ",
"                                                        h T | O.x 5 8 8 7                                                       ",
"                                                        G.S.o.[ O.Z.E ; :                                                       ",
"                                                        q.5.` E } 6.M ; :                                                       ",
"                                                        : ; ; * 3 i = * &                                                       ",
"                                                        ; * * * 1 i = * &                                                       ",
"                                                        z z z z 8 5 8 l 8                                                       ",
"                                                        v v v v l 7 l n z                                                       ",
"                                                        c z 8 7 8 7 8 z l                                                       ",
"                                                        c z : * 5 8 8 z l                                                       ",
"                                                        8 7 8 8 8 7 8 l 8                                                       ",
"                                                        ; * v D 8 5 7 5 :                                                       ",
"                                                        7 5 v S z 8 l 7 8                                                       ",
"                                        (.r.e.:.,.<.=.~ [ P _ P o.y.Z c Z z.4.w.g.g.f.r.                                        ",
"                                        u.5.W :.h.w.1.>.t.S.u.u.D.~.t.Z E z.e.~ ;.d.h.0.h.                                      ",
"                                      3.l.Z v Z D ] |.Y.{.              i.t.6.C C D D e..X                                      ",
"                                      8.r.D D Z C K  X{.W.              i.6.o.D D Z C y.oX                                      ",
"                                      5.q.c l v Z Z y.4.E.              <.3. .z z C Z _ k.                                      ",
"                                      q.y.l 4 z D Z { L E.              <.q. .7 7 C Z Z +.                                      ",
"                                      0./ z 8 c Z C ` R E.              ,./ ^ l l C Z Z ..                                      ",
"                                      7 ; 1.]...C c : ; W.              j ; 7 I.n.C C 8 ,                                       ",
"                                      4 @ :.'. .v z & & W.              g @ 4 b.n.b v 7 -                                       ",
"                                      c 7 f.+X8.Z C 7 5 Q.              j 8 z !.!.P D z 9                                       ",
"                                      F D M.<XD.@.U Z v R.              ! F F -X#X*.@.G C                                       ",
"                                      D C N.,Xj.@.H v c T.              ! D D +X@X*.@.Z v                                       ",
"                                      K v Q.=Xh.c L $.G v.              k C ) %XXX .c I #.                                      ",
"                                      ] C Q.*Xg.l E &.$.                f D | %XXX/ l { &.                                      ",
"                                      M l E.<Xp.8 R %.#.                y z W %XXX( l _ %.                                      ",
"                                      o . U.1Xa.* p B )                 % . $ $XoXd 2 T )                                       ",
"                                      o . U.1Xa.* p V Q                   . $ ;XoXd 2 T )                                       ",
"                                                                                                                                ",
"                                                                                                                                "
};
