/* XPM */
static char *_dff09c970b7450ab3baf9c970cb5b94bO9njztG3gnI4PdS[] = {
/* columns rows colors chars-per-pixel */
"64 64 220 2 ",
"   c None",
".  c #110508",
"X  c #000618",
"o  c #1F1918",
"O  c #001927",
"+  c #071A26",
"@  c #131E26",
"#  c #2D2D2E",
"$  c #312E2D",
"%  c #31312F",
"&  c #353637",
"*  c #3B383B",
"=  c #3E3938",
"-  c #3F3C3A",
";  c #6C4F3F",
":  c #404A4A",
">  c #4D504A",
",  c #92664C",
"<  c #95694B",
"1  c #9B694A",
"2  c #80715E",
"3  c #A7724E",
"4  c #B87C57",
"5  c #B67E58",
"6  c #807669",
"7  c #BC8459",
"8  c #BC845D",
"9  c #B68958",
"0  c #BBA26F",
"q  c #D98C50",
"w  c #D0895B",
"e  c #FFA059",
"r  c #C08D63",
"t  c #DA8E61",
"y  c #F39E67",
"u  c #FCA569",
"i  c #F8A96C",
"p  c #FFAE6F",
"a  c #FFB674",
"s  c #FFBF75",
"d  c #FFC475",
"f  c #FFC07C",
"g  c #FFC87E",
"h  c #FFC97F",
"j  c #FFD27E",
"k  c #989C86",
"l  c #ADA589",
"z  c #CEC19D",
"x  c #FFD082",
"c  c #FFD587",
"v  c #FFD58F",
"b  c #FFDE89",
"n  c #FFD691",
"m  c #FFDB95",
"M  c #FFD398",
"N  c #FFD79C",
"B  c #FFD89F",
"V  c #FFEF94",
"C  c #C4C5A5",
"Z  c #D6D0AC",
"A  c #D1CBB0",
"S  c #DCDCB8",
"D  c #FFDCA5",
"F  c #E3DCB8",
"G  c #FFE3A3",
"H  c #E9E0B8",
"J  c #EAE1B9",
"K  c #ECE1BB",
"L  c #EEE3BC",
"P  c #EFE3BD",
"I  c #ECE5BF",
"U  c #F8E5B7",
"Y  c #FFEAB7",
"T  c #F2E5B8",
"R  c #F0E5BA",
"E  c #F2E6BB",
"W  c #F6E7BA",
"Q  c #F6E8BA",
"!  c #F7E9BA",
"~  c #F3E9BF",
"^  c #F5E9BC",
"/  c #F6EABC",
"(  c #F6EABD",
")  c #F7EBBD",
"_  c #F7EBBE",
"`  c #F8EAB9",
"'  c #FAEAB8",
"]  c #FFEBB8",
"[  c #FBEDBB",
"{  c #FDECB8",
"}  c #FCECB9",
"|  c #FFEDBB",
" . c #FFEEBA",
".. c #FFEFBA",
"X. c #F8EBBE",
"o. c #FAEDBC",
"O. c #F8ECBF",
"+. c #FBEDBE",
"@. c #FFEEBC",
"#. c #FEEFBF",
"$. c #FFF1BA",
"%. c #FFF0BE",
"&. c #FFF1BE",
"*. c #FFF1BF",
"=. c #E1DDC0",
"-. c #E0DDC3",
";. c #E7E0C0",
":. c #EDE5C0",
">. c #EEE9C6",
",. c #EFE9C6",
"<. c #E9E7C9",
"1. c #E8E7CF",
"2. c #EDECCD",
"3. c #F0E7C0",
"4. c #F0E7C1",
"5. c #F3EAC3",
"6. c #F7EEC3",
"7. c #F4EBC4",
"8. c #F7EEC5",
"9. c #F9EDC0",
"0. c #F9EDC1",
"q. c #FAEEC1",
"w. c #F8EFC3",
"e. c #FBEFC2",
"r. c #FAEFC3",
"t. c #FCEFC2",
"y. c #F1EBC9",
"u. c #F1EBCB",
"i. c #F2EDCB",
"p. c #F7EEC8",
"a. c #F4EECC",
"s. c #FEF0C2",
"d. c #FFF2C2",
"f. c #FFF2C3",
"g. c #FFF3C3",
"h. c #FFF5C1",
"j. c #FFF4C3",
"k. c #FCF1C5",
"l. c #FDF2C5",
"z. c #FFF3C5",
"x. c #FCF1C6",
"c. c #FCF2C6",
"v. c #FEF3C6",
"b. c #FEF3C7",
"n. c #FFF4C4",
"m. c #FFF7C5",
"M. c #FFF9C5",
"N. c #FFF8C6",
"B. c #FFFCC6",
"V. c #F7F7CD",
"C. c #F8F2CB",
"Z. c #F8F4C9",
"A. c #FFF4C8",
"S. c #FFF5C9",
"D. c #FFF7C8",
"F. c #FFF6C9",
"G. c #FFF7C9",
"H. c #FCF5CA",
"J. c #FDF5CA",
"K. c #FFF5CA",
"L. c #FFF7CB",
"P. c #F8F2CC",
"I. c #FFF7CC",
"U. c #FBF9CB",
"Y. c #FFF9C8",
"T. c #FFFAC8",
"R. c #FFF8CB",
"E. c #FFFBCA",
"W. c #FFFACB",
"Q. c #FFFBCB",
"!. c #FFFFC8",
"~. c #FFFECB",
"^. c #FFF8CC",
"/. c #FFF9CC",
"(. c #FFF8CD",
"). c #FFF9CD",
"_. c LemonChiffon",
"`. c #FFF9CE",
"'. c #FFFACE",
"]. c #FFFACF",
"[. c #FFFBCF",
"{. c #FFFCCC",
"}. c #FFFCCD",
"|. c #FFFECC",
" X c #FFFFCD",
".X c #FFFCCF",
"XX c #FFFECE",
"oX c #FFFFCE",
"OX c #FFFFCF",
"+X c #F4F1D1",
"@X c #FFFAD0",
"#X c #FFFCD0",
"$X c #FFFDD0",
"%X c #FFFCD1",
"&X c #FFFED0",
"*X c #FFFFD0",
"=X c #FFFED1",
"-X c #FFFFD1",
";X c #FFFCD2",
":X c #FFFDD2",
">X c #FFFFD3",
",X c #FAFBD4",
"<X c #FFFDD5",
"1X c #FFFED4",
"2X c #FFFFD5",
"3X c #FFFFD7",
"4X c #FFFFD9",
"5X c #FFFCDA",
"6X c #FFFFDA",
"7X c #FFFFDB",
"8X c #FFFFDC",
"9X c #FFFFDD",
"0X c #FFFFDE",
"qX c #FFFFDF",
"wX c LightYellow",
"eX c #FFFFE2",
"rX c #FFFFE5",
"tX c #FFFFE7",
"yX c #FFFFE9",
"uX c ivory",
/* pixels */
"                                                                                                                                ",
"                                                                                                                                ",
"                                                                                                                                ",
"                                                                                                                                ",
"                                                                                                                                ",
"                                                                                                                                ",
"                                                                                                                                ",
"                                                                                                                                ",
"                                                                                                                                ",
"                                                                                                                                ",
"                                                                                                                                ",
"                                                                                                                                ",
"                                                                                                                                ",
"                                                                                                                                ",
"                                                                                                                                ",
"                                                                                                                                ",
"                                                                                                                                ",
"                                                                                                                                ",
"                                                                                                                                ",
"                                                                                                                                ",
"                                                                                                                                ",
"                                                                                                                                ",
"                                                                                                                                ",
"                                                                                                                                ",
"                      o q 0                                                                                                     ",
"                    > 6 n 5XC                                                                                                   ",
"          % * = @ X F uX<XyXz                                                                                                   ",
"          $ & O ; 9 U wX'.5XJ   l J S Z r                                                                                       ",
"          - # + 8 V s.<XY.G.<XtXwX5XyX8Xn g h G !.wX8X8X8X8X8X>X'.>X'.>X>X8Xh.s p 4 5 c f t , d j y 1 i b u 3 7 x a w <         ",
"        ,X: . e M <XI.'.G.'.G.'.'.'.@XG.D D N @.>X'.b./ / 9.9.I.'.G.'.I.G.<X;.                                                  ",
"        8Xk 2 m $.8X'.Y.'.'.'.I.Y.I.'.G.] ] ] G.>X'.b.9.r.9./ G.'.G.'.G.Y.OX<.                                                  ",
"        6.wXtX8X>XN.Y.Y.Y.Y.'.I.'.I.G.'.@X@X@X'.G.I.I.'.@Xx./ I.'.I.I.I.'.>X,.                                                  ",
"                          1.` G.'.I.'.@Xr./ 9.9.r.I.I.Y.I.G.G.I.I.'.I.'.'.OXy.                                                  ",
"                            ` G.'.'.G.b.t.9.9./ r.'.'.'.I.'.'.I.I.G.I.G.b.>X,.                                                  ",
"                            +.'.@X'.t.W I.@XY.'.'.'.'.'.'.'.G.'.'.@X>Xb.T OXi.                                                  ",
"                             .%.m.'.t./ b.Y.OX>XOXs.s.m.s.Y.>X!.N.@.6.b.G.B.7.                                                  ",
"                            / 4.5.'.b./ E 4.P.P.8.L L L K 5.P.+X2.:.` 9.>XR A                                                   ",
"                                  G.b.%.-.                           .W U                                                       ",
"                                  I.b.%.=.                          m.b.[                                                       ",
"                                  Y.b.{ u.                          >X>XY.                                                      ",
"                                  '.b.{ a.                          >X'.OX                                                      ",
"                                  Y.Y.OXI                           >XY.OX                                                      ",
"                                  8.Z.V.                            G.'.U.                                                      ",
"                                                                                                                                ",
"                                                                                                                                ",
"                                                                                                                                ",
"                                                                                                                                ",
"                                                                                                                                ",
"                                                                                                                                ",
"                                                                                                                                ",
"                                                                                                                                ",
"                                                                                                                                ",
"                                                                                                                                ",
"                                                                                                                                ",
"                                                                                                                                ",
"                                                                                                                                ",
"                                                                                                                                ",
"                                                                                                                                ",
"                                                                                                                                ",
"                                                                                                                                ",
"                                                                                                                                ",
"                                                                                                                                ",
"                                                                                                                                ",
"                                                                                                                                "
};
