/* XPM */
static char *fc4f0b163adb400fbe6eb127ebf3be96QNQDD60ipEUQ78JL[] = {
/* columns rows colors chars-per-pixel */
"64 64 230 2 ",
"   c None",
".  c #00020A",
"X  c #05131F",
"o  c #371B16",
"O  c #30241D",
"+  c #031A28",
"@  c #131B29",
"#  c #111F29",
"$  c #11272F",
"%  c #2E2E30",
"&  c #313332",
"*  c #353231",
"=  c #313436",
"-  c #383636",
";  c #3A3839",
":  c #3C3938",
">  c #494F4C",
",  c #7C5640",
"<  c #9A684A",
"1  c #9A6B4D",
"2  c #9E6D4C",
"3  c #936C52",
"4  c #A97451",
"5  c #7D8475",
"6  c #BD865C",
"7  c #968067",
"8  c #90816E",
"9  c #AB996C",
"0  c #BC9363",
"q  c #CA8355",
"w  c #CC865C",
"e  c #C78A5E",
"r  c #CD8F5F",
"t  c #DA9757",
"y  c #D99665",
"u  c #E99863",
"i  c #F39D65",
"p  c #FFAE62",
"a  c #FFA96E",
"s  c #FFB96E",
"d  c #FFB170",
"f  c #FFB372",
"g  c #FFBC78",
"h  c #FFCC7B",
"j  c #FFCD7B",
"k  c #FFCA7F",
"l  c #B5AD8F",
"z  c #BAAE8D",
"x  c #AEB397",
"c  c #FFCB81",
"v  c #FFD283",
"b  c #FFD187",
"n  c #FFD886",
"m  c #FFD989",
"M  c #FFDE94",
"N  c #FFD89F",
"B  c #FFE39A",
"V  c #FFF29B",
"C  c #D4CCA6",
"Z  c #CECAB3",
"A  c #DADAB7",
"S  c #D9D2B8",
"D  c #DBD8BC",
"F  c #DCD9BD",
"G  c #DFDCBE",
"H  c #E0D6AF",
"J  c #FFD9A0",
"K  c #FFD9A1",
"L  c #FFDAA2",
"P  c #E1DDBB",
"I  c #FFE8A7",
"U  c #EDE1B6",
"Y  c #ECE1BB",
"T  c #EEE2BB",
"R  c #EFE3BD",
"E  c #E9E4BC",
"W  c #EFE6BF",
"Q  c #F1E5BB",
"!  c #F5E5B8",
"~  c #F7E9BA",
"^  c #F7EABB",
"/  c #F6E9BC",
"(  c #F6EABC",
")  c #F6EABD",
"_  c #F7EBBD",
"`  c #F5EBBE",
"'  c #F6EABE",
"]  c #F7EBBE",
"[  c #FFEBB8",
"{  c #FFEBB9",
"}  c #FCECB9",
"|  c #FFEEB9",
" . c #FFEFB9",
".. c #FFECBA",
"X. c #FCEEBA",
"o. c #F8EBBE",
"O. c #F8ECBD",
"+. c #F8ECBF",
"@. c #FDEFBD",
"#. c #FCEFBF",
"$. c #FFEFBF",
"%. c #FFF1B8",
"&. c #FFF1BB",
"*. c #FFF0BE",
"=. c #FFF1BE",
"-. c #FFF0BF",
";. c #FFF3BF",
":. c #D9D8C3",
">. c #DEDEC7",
",. c #E5E1C2",
"<. c #EEE6C0",
"1. c #E8E3C4",
"2. c #E9E5C7",
"3. c #EEE5C4",
"4. c #EAE6C8",
"5. c #EBE7CC",
"6. c #ECEBCC",
"7. c #EFEACF",
"8. c #F1E8C3",
"9. c #F5ECC3",
"0. c #F4EBC4",
"q. c #F6EDC6",
"w. c #F9EDC0",
"e. c #F9EDC1",
"r. c #F8EEC0",
"t. c #F8EEC1",
"y. c #FAEEC1",
"u. c #F9EDC2",
"i. c #F8EFC3",
"p. c #FBEFC2",
"a. c #FAEFC3",
"s. c #FCEFC3",
"d. c #FDEFC3",
"f. c #FCEFC4",
"g. c #F0ECCF",
"h. c #FBF0C3",
"j. c #FFF0C1",
"k. c #FEF1C3",
"l. c #FFF2C2",
"z. c #FFF4C3",
"x. c #FBF0C4",
"c. c #FDF0C4",
"v. c #FEF1C4",
"b. c #FFF1C4",
"n. c #FEF1C5",
"m. c #FDF2C4",
"M. c #FEF3C5",
"N. c #FDF2C6",
"B. c #FFF4C4",
"V. c #FFF4C5",
"C. c #FFF5C6",
"Z. c #FFF4C7",
"A. c #FFF8C5",
"S. c #FFFEC5",
"D. c #F8F2CB",
"F. c #F9F5CB",
"G. c #FBF4CA",
"H. c #FFF4C8",
"J. c #FEF4C9",
"K. c #FFF5C9",
"L. c #FFF7C8",
"P. c #FFF7C9",
"I. c #FDF6CA",
"U. c #FFF6CA",
"Y. c #FFF7CA",
"T. c #FFF7CB",
"R. c #F8F2CC",
"E. c #F8F6CD",
"W. c #FFF9C9",
"Q. c #FFFAC8",
"!. c #FFFAC9",
"~. c #FFFBC9",
"^. c #FFF9CA",
"/. c #FFF8CB",
"(. c #FFFACA",
"). c #FFFACB",
"_. c #FFFBCB",
"`. c #FFFECB",
"'. c #FFFFCB",
"]. c #FFF8CC",
"[. c #FFF9CC",
"{. c #FFF8CD",
"}. c #FFF9CD",
"|. c #FFFBCC",
" X c LemonChiffon",
".X c #FFFBCD",
"XX c #FFF9CE",
"oX c #FFFACE",
"OX c #FFFBCE",
"+X c #FFFACF",
"@X c #FFFBCF",
"#X c #FFFCCD",
"$X c #FFFDCD",
"%X c #FFFFCD",
"&X c #FFFCCF",
"*X c #FFFDCF",
"=X c #FFFFCE",
"-X c #EBE7D0",
";X c #EAEDD9",
":X c #F4F1D1",
">X c #F7FAD0",
",X c #FFFBD1",
"<X c #FFFCD0",
"1X c #FFFDD0",
"2X c #FFFCD1",
"3X c #FFFDD1",
"4X c #FFFFD0",
"5X c #FFFFD1",
"6X c #FFFCD2",
"7X c #FFFCD3",
"8X c #FFFFD2",
"9X c #FFFED3",
"0X c #FFFFD4",
"qX c #FFFDD6",
"wX c #FFFFD6",
"eX c #FFFFD7",
"rX c #FFFFD8",
"tX c #FFFFD9",
"yX c #FFFDDB",
"uX c #FFFFDA",
"iX c #FFFFDC",
"pX c #FFFFDD",
"aX c #FFFFDE",
"sX c #FFFFDF",
"dX c LightYellow",
"fX c #FFFFE2",
"gX c #FFFFE5",
"hX c #FFFFE6",
"jX c #FFFFEA",
"kX c #FFFFEB",
/* pixels */
"                                                                                                                                ",
"                                                                                                                                ",
"                                                                                                                                ",
"                                                                                                                                ",
"                                                                                                                                ",
"                                                                                                                                ",
"                                                                                                                                ",
"                                                                                                                                ",
"                                                                                                                                ",
"                                                                                                                                ",
"                                                                                                                                ",
"                                                                                                                                ",
"                                                                                                                                ",
"                                                                                                                                ",
"                                                                                                                                ",
"                                                                                                                                ",
"                                                                                                                                ",
"                                                                                                                                ",
"                                                                                                                                ",
"                                                                                                                                ",
"                                                                                                                                ",
"                                                                                                                                ",
"                                                                                                                                ",
"                                                                                                                                ",
"                                                                                                9 t O .                         ",
"                                                                                              x sXM 8 >                         ",
"                                                                                              z jXqXjXZ.@ + : - &               ",
"                                                                                  6 C A E l   H sX].sXz.6 , + & *               ",
"    3 q d v r 2 i n d < u j j 1 w g m e 4 a s %.sX3X3X*X3X*X3XrXsXsXrXsXfX~.I c c b qXjXrXfXgXqXZ.].3XZ.V y $ % -               ",
"                                              S rX].].].].].].h.' ' ' l.,X,Xl.K K K Z.3X].].].].).).].].qXK p o $ >X            ",
"                                              >.3X].].].].].].] O.t.t.n.].3X).{ { { ].].].].].].].].].].sX;.B 7 5 sX            ",
"                                              1.3X).].].].].].] x.3X,X].].].].3X7X3X].].].].).].*X~.A.).A.3XrXgXsXL.            ",
"                                              4.3X].].].].].].L.L.].].].].n.9.t.O.t.,X].].].L.$.5.                              ",
"                                              ,.3XL.].].].].].*X].].].).].x.O.O.o.t.n.L.].3XL.|                                 ",
"                                              1.*X! n.3X].].].].].].3X].].).].].].3X' t.].3X).d.                                ",
"                                              3.S.I.Z.9.l.A.~.*X].z.z.Z.l.*X3X3X).l.' x.3XZ.$.%.                                ",
"                                              Z U 3Xh.^ <.6.:XR.q.Y R R R q.R.D.8.Q ' n.*Xq.R ]                                 ",
"                                                  ^ ^ %.;X                        :.=.l.A.                                      ",
"                                                  ] n.A.-X                          $.n.).                                      ",
"                                                  ).3X3XF                         7.} l.).                                      ",
"                                                  ].*X3XF                         g.| d.).                                      ",
"                                                  *X].3XG                         P *X).).                                      ",
"                                                  E.*XL.                            E.E.t.                                      ",
"                                                                                                                                ",
"                                                                                                                                ",
"                                                                                                                                ",
"                                                                                                                                ",
"                                                                                                                                ",
"                                                                                                                                ",
"                                                                                                                                ",
"                                                                                                                                ",
"                                                                                                                                ",
"                                                                                                                                ",
"                                                                                                                                ",
"                                                                                                                                ",
"                                                                                                                                ",
"                                                                                                                                ",
"                                                                                                                                ",
"                                                                                                                                ",
"                                                                                                                                ",
"                                                                                                                                ",
"                                                                                                                                ",
"                                                                                                                                ",
"                                                                                                                                "
};
