/* XPM */
static char *_024756acf0d416bbbd0bc73a1162d3ef0LzfhDcmf0Ys2v7[] = {
/* columns rows colors chars-per-pixel */
"64 64 206 2 ",
"   c None",
".  c #000100",
"X  c #001D00",
"o  c #001000",
"O  c #002302",
"+  c #002D00",
"@  c #003401",
"#  c #003D00",
"$  c #003E0C",
"%  c #113C25",
"&  c #004400",
"*  c #004C00",
"=  c #00410B",
"-  c #005400",
";  c #005C00",
":  c #005108",
">  c #005F0B",
",  c #005214",
"<  c #00541A",
"1  c #006300",
"2  c #006B00",
"3  c #00630A",
"4  c #007400",
"5  c #007B00",
"6  c #007C0A",
"7  c #006817",
"8  c #00741A",
"9  c #007C1D",
"0  c #007812",
"q  c #004D23",
"w  c #004D2D",
"e  c #00502C",
"r  c #005B2F",
"t  c #004230",
"y  c #184025",
"u  c #006A22",
"i  c #006E2D",
"p  c #007A28",
"a  c #006B35",
"s  c #006E3B",
"d  c #006632",
"f  c #007831",
"g  c #087D42",
"h  c #65796C",
"j  c #7D6C76",
"k  c #008400",
"l  c #008B00",
"z  c #008609",
"x  c #009400",
"c  c #009B00",
"v  c #00940E",
"b  c #008613",
"n  c #009913",
"m  c #009B1D",
"M  c #009713",
"N  c #00A300",
"B  c #00AC00",
"V  c #00AB0B",
"C  c #00B300",
"Z  c #00BA02",
"A  c #00B40D",
"S  c #00BB09",
"D  c #00A513",
"F  c #00AD15",
"G  c #00A21A",
"H  c #00AB1B",
"J  c #00B21E",
"K  c #00B815",
"L  c #008323",
"P  c #008D29",
"I  c #009421",
"U  c #009E21",
"Y  c #00932A",
"T  c #00992C",
"R  c #008D34",
"E  c #008C3B",
"W  c #008737",
"Q  c #009532",
"!  c #009C35",
"~  c #009C3C",
"^  c #00913D",
"/  c #00A623",
"(  c #00AB24",
")  c #00A32C",
"_  c #00AD2C",
"`  c #00B423",
"'  c #00B22A",
"]  c #00BC26",
"[  c #00A533",
"{  c #00AC34",
"}  c #00A53B",
"|  c #00AC3C",
" . c #00B334",
".. c #00B23D",
"X. c #00BB3C",
"o. c #00C400",
"O. c #00C713",
"+. c #00D616",
"@. c #00E417",
"#. c #00C22D",
"$. c #00C335",
"%. c #00D43C",
"&. c #008D40",
"*. c #008C4D",
"=. c #00824C",
"-. c #009443",
";. c #00934A",
":. c #009C4B",
">. c #009F40",
",. c #008D5A",
"<. c #008B53",
"1. c #009450",
"2. c #009F54",
"3. c #029A5B",
"4. c #00A344",
"5. c #00AC44",
"6. c #00A34B",
"7. c #00AC4B",
"8. c #00B344",
"9. c #00B44C",
"0. c #00BA4B",
"q. c #00BF45",
"w. c #00A253",
"e. c #00AD54",
"r. c #00A45C",
"t. c #00AC59",
"y. c #00B453",
"u. c #00BB56",
"i. c #00B45A",
"p. c #00BA59",
"a. c #1C8F61",
"s. c #00A666",
"d. c #00A16C",
"f. c #00A962",
"g. c #00B362",
"h. c #00BB62",
"j. c #00BD6C",
"k. c #00B36D",
"l. c #00B573",
"z. c #00BD74",
"x. c #06B977",
"c. c #19B172",
"v. c #26AC77",
"b. c #3AB47A",
"n. c #3AAD7D",
"m. c #5D9576",
"M. c #57947E",
"N. c #458D6D",
"B. c #47A77D",
"V. c #47A479",
"C. c #40B671",
"Z. c #61B67E",
"A. c #65A876",
"S. c #00C844",
"D. c #00C848",
"F. c #00C45E",
"G. c #00D254",
"H. c #00C161",
"J. c #00C26B",
"K. c #00CA69",
"L. c #00C274",
"P. c #00CB71",
"I. c #01C47C",
"U. c #00CA7E",
"Y. c #51C17D",
"T. c #6F9484",
"R. c #41B984",
"E. c #51BD8B",
"W. c #57AE8D",
"Q. c #6FA18E",
"!. c #6FBB8F",
"~. c #70B98F",
"^. c #71B491",
"/. c #07C984",
"(. c #00C990",
"). c #2DC692",
"_. c #41C38C",
"`. c #6DC99D",
"'. c #6AD19D",
"]. c #7BD29B",
"[. c #79C8A0",
"{. c #89AD90",
"}. c #A1B79F",
"|. c #89BEA1",
" X c #91B7A9",
".X c #B1B7AD",
"XX c #ACBFB2",
"oX c #B9B4B7",
"OX c #B6B6B6",
"+X c #B7A5B0",
"@X c #A6C1AF",
"#X c #B0D2BF",
"$X c #B0C4B8",
"%X c #C3CABA",
"&X c #CDBFC0",
"*X c #D7B8CA",
"=X c #E6BFCF",
"-X c #FFBBE6",
";X c #FFB4FA",
":X c #D2C4CD",
">X c #C4C2C4",
",X c #E2D0DB",
"<X c #E4CECA",
"1X c #FCC4E7",
"2X c #FADDEB",
"3X c #FFD1F8",
/* pixels */
"                                                                                                                                ",
"                                                                                                                                ",
"                                                                                                                                ",
"                                              C N x D x.i.B B c x u t 9 C N c c                                                 ",
"                                            B C c k c l.7.c c x x 7 w 6 B c c c                                                 ",
"                                            c N 4 = 9 D.{ 1 1 l x ( h.D l c 8._                                                 ",
"                                            x N 2 @ 8 S.[ ; - k l ' P.F l c 9.{                                                 ",
"                                            2 2 a.+XW.F.i.>.~ 5.0.9 3 2 1 k 8._                                                 ",
"                                            * & T.3XXXI./.j.j.j.P.; X & # 2  .(                                                 ",
"                                            k 5 B.1X!.` ` A A p.J.;.g R b T ..y.                                                ",
"                                            Z C _.3XY.B C Z Z J.).[.%X(.K.J.y.j.                                                ",
"                                            c c l.,Xx.B B c c { 7.9.p.8.`  .8.p.                                                ",
"                                            k 5 7.].p.C N 2 2 k k N Z B B B { 8.                                                ",
"                                            l k e.'.u.N c 4 4 l l N C B N B ..9.                                                ",
"                                            c c { P.! - 1 5 5 5 5 c C c 5 c J.j.                                                ",
"                                            c c { K.! * 1 5 5 5 5 c C x 4 x J.z.                                                ",
"                                            2 1 Q L.5.G v 2 1 1 7 k l x { { 5.i.                                                ",
"                                            - & P H. .C c - - : q 4 5 x X...8.p.                                                ",
"                                            l k w. XR.j.g.Y Y ^ ;.l k m z.6.6 R                                                 ",
"                                            B C Z.;X=X<X%XI.I.U./.N k [ #X3.# ;                                                 ",
"                                              l 2.Q.v.z.g.H H H ( N N Q N.=.- f                                                 ",
"                                              W.*.f Q $.C c c N N C G.-.% < a                                                   ",
"                                                      8 0 2 2 2 1 4 4 <.                                                        ",
"                                                      $ $ @ @ O o @ @ r                                                         ",
"                                                      : ; 1 1 1 3 ; * a                                                         ",
"                                                      * 1 x x ' G.k @ u                                                         ",
"                                                      1 2 x x H 0.k - p                                                         ",
"                                                      c c B B H 7.N c H                                                         ",
"                                                      c c C C F 7.N c F                                                         ",
"                                                      B N x l H 8.H c |                                                         ",
"                                                      C B l k / 8._ N 9.                                                        ",
"                                                      c l 2 1 U q.I 2 &.                                                        ",
"                                                      x 5 # @ I D.9 + d                                                         ",
"                                                      5 5 4 4 ) X.Q 8 1.                                                        ",
"                                                      - 4 S.S. ._ u.J./.                                                        ",
"                                                      - 2 [ { ) U 4.7.k.                                                        ",
"                                                      * * e e - * - * f                                                         ",
"                                                      * * q w * * - * i                                                         ",
"                                                      k 5 4 4 k l l k T                                                         ",
"                                                      x l 5 5 x N c x /                                                         ",
"                                                      l k 5 5 5 4 k l n                                                         ",
"                                                      l l 5 5 ; * 5 l y.                                                        ",
"                                                      k 5 5 4 5 5 5 1 C.                                                        ",
"                                                      2 2 4 2 c A 5 O A.                                                        ",
"                                                      4 5 k 5 c F k - r.                                                        ",
"                                      j.e.d.d.s.2.f.9.c c 9.9._ H ( J [ E *.,.1.w.t.h.                                          ",
"                                    !.6.r.c.w.Q :.l.6.N ` L.L.h.p.H.F.:.,.3.s.r.Q ~ 9.j.                                        ",
"                                    Q.{.B C B c B J.&.                m..Xg.C B N N 8.g.                                        ",
"                                    .X}.B N B C C p.R                 m.&Xg.N B C C  .i.                                        ",
"                                    g.i.B B c k c p.E                 3.g._ B N x l [ t.                                        ",
"                                    ' ` B C l 1 l h.&.                -.J B B N 4 2 ! g.                                        ",
"                                    [ [ B B x 5 v 7.W                 *.) N B N k k T 4.                                        ",
"                                    > 3 x c 7.`.-.- ;                 s * 5 N c b.E.5 ;                                         ",
"                                    < * l c 7.`.E # *                 s @ 2 c c c.R.2 &                                         ",
"                                    L 4 N B i.$Xw.5 4                 W 2 l C F ~.|.l 5                                         ",
"                                    ( B O.o.I.1Xj.o.c                 ~ N A o.#.$X:XZ C                                         ",
"                                    / c S o.L.1Xh.Z l                 ~ c B o.] @X>XC B                                         ",
"                                    $.S G x n.-Xv.B k j               } o.J x ! OX*X) c                                         ",
"                                    %.O.m l B.-Xb.Z z                 } @.] z Q oX*X| B                                         ",
"                                    $.K I k B.1XV.x 4                 Q +.( z R oX*XQ k                                         ",
"                                    [ M u : M.2Xh . X                 P H L , a oX:Xy .                                         ",
"                                    [ n u : M.2Xh . O                 *.V L , a OX:X% .                                         ",
"                                                                                                                                ",
"                                                                                                                                "
};
