/* XPM */
static char *_b2ad45f68c7423ff52207e367ee9574VOJltxSEOm6OrRji[] = {
/* columns rows colors chars-per-pixel */
"32 32 126 2 ",
"   c None",
".  c #3F311F",
"X  c #372F23",
"o  c #3F3931",
"O  c #563F1E",
"+  c #5D3E1D",
"@  c #4E3F26",
"#  c #593D21",
"$  c #5C411F",
"%  c #5E4220",
"&  c #54432C",
"*  c #5A442E",
"=  c #604320",
"-  c #6B4D24",
";  c #744723",
":  c #6F5025",
">  c #6F5229",
",  c #735327",
"<  c #785327",
"1  c #745529",
"2  c #7A5429",
"3  c #7C5B2C",
"4  c #624E34",
"5  c #655436",
"6  c #6A5739",
"7  c #7F602E",
"8  c #675541",
"9  c #6B5641",
"0  c #776549",
"q  c #79674A",
"w  c #7A694B",
"e  c #825D2D",
"r  c #83612F",
"t  c #856431",
"y  c #896632",
"u  c #876832",
"i  c #8C6A35",
"p  c #8C6C3A",
"a  c #906D37",
"s  c #916E38",
"d  c #8F7036",
"f  c #8F7039",
"g  c #917137",
"h  c #94723A",
"j  c #947338",
"k  c #937439",
"l  c #93743B",
"z  c #93753B",
"x  c #947439",
"c  c #957539",
"v  c #94743A",
"b  c #94753A",
"n  c #95753A",
"m  c #94743B",
"M  c #95753B",
"N  c #95763A",
"B  c #93733C",
"V  c #95743C",
"C  c #95753C",
"Z  c #97753C",
"A  c #95773C",
"S  c #95763D",
"D  c #96763C",
"F  c #96763D",
"G  c #96773D",
"H  c #937339",
"J  c #98773B",
"K  c #94793D",
"L  c #98793C",
"P  c #99793C",
"I  c #997A3C",
"U  c #99783E",
"Y  c #997A3E",
"T  c #9A7A3F",
"R  c #9B7C3D",
"E  c #9C7D3D",
"W  c #9D7E3F",
"Q  c #9C7F3F",
"!  c #9E7E3F",
"~  c #9B7C3E",
"^  c #987A40",
"/  c #9B7D40",
"(  c #997D42",
")  c #9C7F40",
"_  c #9E7F40",
"`  c #9E7F42",
"'  c #997E45",
"]  c #9A7F45",
"[  c #9A7E47",
"{  c #9B7D40",
"}  c #9F8040",
"|  c #9E8041",
" . c #9F8041",
".. c #9E8142",
"X. c #9F8142",
"o. c #9F8143",
"O. c #9E8244",
"+. c #9E8246",
"@. c #9F8247",
"#. c #9E8143",
"$. c #9D8148",
"%. c #A08142",
"&. c #A08242",
"*. c #A08144",
"=. c #A18645",
"-. c #A08446",
";. c #A18446",
":. c #A28647",
">. c #A48747",
",. c #A18344",
"<. c #A48944",
"1. c #A58845",
"2. c #A68945",
"3. c #A68B46",
"4. c #A08448",
"5. c #A28648",
"6. c #A78C49",
"7. c #A78D49",
"8. c #AA8E4B",
"9. c #AA8F4B",
"0. c #A98F4C",
"q. c #AA8F4D",
"w. c #AB8F4D",
"e. c #AA904D",
"r. c #AB904D",
"t. c #AA904E",
/* pixels */
"                p r.<.1.<.6.r.8.3.6.r.r.0.0.0.C                 ",
"                p >.j i i g g s s s d g f s Z e                 ",
"                p O.t 2 < 3 2 y t e e e 1 t s 1                 ",
"                1 i ,         m 3         p y -                 ",
"                * 4 <           i         5.k <                 ",
"                8 0 2         =.s         5.k 2                 ",
"                p [ y u C $.$.O.p r j k ^ +.A 2                 ",
"                t C 1 > > 1 1 7 3 : , > > 7 t -                 ",
"                i | e         ( p         ( k <                 ",
"                i Q r           p         =.m <                 ",
"                i | e         | i         5.g <                 ",
"                7 g 3 i C h g h y i A C S g y -                 ",
"                p ` i C *.` ! ! d k ! R | U p 2                 ",
"                s | 3 2 t t t i r e t 3 1 3 y 2                 ",
"                i ( e 3 t y i h i r y 4 o X # ;                 ",
"                & 5 1 1 e 3 e i e 1 r @ . > > +                 ",
"                6 w 3 7 i i a I i r s y u U C ,                 ",
"                p O.i d L } } E h j ! | } &.U 2                 ",
"                i O.i r u i i i i i p i r u p 2                 ",
"                e p , - : : , 3 1 , , - - 1 r -                 ",
"                p Q 2 3 t y i j i e r r r j j <                 ",
"                i } 2 3 a a a I a r i i i L c 2                 ",
"                p | y r a a a I i e r i p R J 2                 ",
"                7 g 3 y a i a g y y g i a g y -                 ",
"                p $.y i p r r i i i i i i a i <                 ",
"                t ^ r 2 3 e 3 i t < 3 < 2 i i 2                 ",
"                & 6 e e y i y j y 3 r i y J c <                 ",
"                6 0 < 1 e 3 2 i r < 7 7 2 i r -                 ",
"                i $.t y g p p I i r i i i d p 2                 ",
"                s } r p ,.,.&.} j c } Q Q ` c 2                 ",
"                p Q r r r i i u u i u u u i u <                 ",
"                > 1 $ = $ $ = $ $ $ $ $ O # % %                 "
};
