/* XPM */
static char *result[] = {
/* columns rows colors chars-per-pixel */
"64 64 35 1 ",
"  c #4C3D26",
". c #504028",
"X c #665131",
"o c #695433",
"O c #6D5836",
"+ c #705B37",
"@ c #735E39",
"# c #785F3C",
"$ c #76603B",
"% c #7C643D",
"& c #7F683E",
"* c #7F6640",
"= c #80693F",
"- c #806740",
"; c #856C43",
": c #8A6F45",
"> c #8E7545",
", c #8D7148",
"< c #907746",
"1 c #927947",
"2 c #957B48",
"3 c #997E4B",
"4 c #9F844D",
"5 c #A1854E",
"6 c #A38651",
"7 c #A88754",
"8 c #A58851",
"9 c #AA8956",
"0 c #AB8B58",
"q c #B08E57",
"w c #B28F59",
"e c #B5915B",
"r c #B8955F",
"t c #BA9661",
"y c #BC9862",
/* pixels */
"yyyr5444454444545545eyyyyyyyeeeq5555ryyyyyyyyyyyyyyyyyyyyyyr8445",
"yyyr5444444444445555ryyyyryyeewq5556ryyyyyyyyryyyyyyyyyyyyyr8544",
"yyyr6444444444445355ryyyyyyrewwq5556ryyyyyyyyyyyyyyyyyyyyyyr5544",
"yyyr6464545544445558ryyyyryreewq5355ryyryyrryyyrryyrryyyyyyr5444",
"yyyrereeqqq9*%%&9qqqeeee98555855544566685578eeee7888eeeeryyy8445",
"yyyyyyyyeee0%$@%9eeweeew55445544444455554555qeeq5445eeeeyyyr5544",
"yyyyyyyyeee0%@@%9eeeweew55555544445444555555qweq5545qeeeyyyr5544",
"yyyyyyyyeqe0&$$%qwwwwwwq85555555433455555555qee05558qeeeryyy5444",
"ryyyyyyy8555422445555555qqqqqqq9=%%=etttrrrreweeteterttyyyyr6444",
"yyyyyyyr8544444444545544qqeeeee9$@+&eytttttteeeeyyyyyyyyyyyr5444",
"yyyyyyyr8444444444445445qeeeeqe0%+$%eyyyyytteweeyyyyyyyyyyyr5454",
"ryyyryrr5444444444444444qqeqeqq0%$+&eyrrtttteeqeetttttyyyryr5444",
"%%-*&&&&$$$$%&&&&&&&&&&%;;=;;;;*$$@$=,=>**&%%&%%****%---;;;;=&&&",
"ooXoXoXoooooO$$O@@@@@@@@@@@@@OO$$+@$@+O$ooXooXoXXoXooXoX@@@@$@@@",
"ooooooooooooO$$O@@@@@@#@@@@@@@@@+$@@$O$Ooooooooooooooooo@@@@@@@@",
"oOoOoOooOooo$$$$$$$$$$$$$$$#$$$@$$$$$$$$OOoooooooOoOOoOO@$$$$$$$",
"99762111<<<1222222429q00990931240000211111<,$OO@33735373773qq7q9",
"yyyt6444445545544455rryyyyyy8446ryyr55554444*@@*0erteeeeeeeetyyy",
"yyyt6444444444444445ryyyyyyr6446ryrr55554444$@@*9eeeeeeweeeeyyyy",
"tttt6444444454555545ryyyyyyr6446ryrr85554444*$#*9ewwwwwqewweeyyy",
"88884444=%%=70qqqqqqeeeeryyy6455ereeqqqqwqqq88873766665555553q77",
"44444444%@$$9eeweweeeeeeyyyr6445qeeeweeweeeeeeww5635555355557335",
"44444444%@@$9eeeeweeeeeeyyyy5545weeweeeeeeeqeeew3555555535555555",
"55646444=$%=9eeeeeeeeeeeryyr6445qwwwqeqqqq00wwtw7755555555555555",
"ttettttt00wweeeerryyttytyyyr554455555555;%&;wyttrrrerrreerrrrrrr",
"yyttyyttyyyyew0eryyyyyyyyyyt645455445553$@@%wyyyyyyyyyyyyyyyryyr",
"yyyyytyyyyyyeeweyyyyyyytyyyr544555445453%@@%wyyyyyyyyyyyyyyyyyyy",
"ttttttttttttewwwryrrtttrttte544444443553%@@%wttttryryryyrrryyryr",
";;;;;;;;********====---------=%========%OoOO%*******%==%=;:;:=::",
"@@@@@$@@ooXoXXXoXoooXXoXoXoo++@@+@@@@+@@ooooooXoXXXooXoo@+@@@@+@",
"@$@@@@@@oooooooooooooooooooo+@@@@@@@@@@@Oooooooooooooooo@@@@@@@@",
"$$$$$$$$Ooo+oOoOOoOooooooooO####$$$$$$$@OoOoOooOoOoOOoOO@%$$$$$$",
"00000000999799990994$O@$>112900099q0686637333q33w3ew777q9q093222",
"yyyyyyyyyyyyyyyytyyt%@@$4555ryyyyyyyeeeeeerreeeeyyyyyyyyyyyt6555",
"yyyyyyyyyyyyyyyytyyw%@@$1445ryyyyyyyeeeeeeeweeeeyyyyyyyyyyyr5544",
"tttttytttttyyyrrttyw*$$%4456ryyyrryrewwwqeqqwwwwyyyytyttttyr5444",
"88887888888888888888w00e00qqeeee856668665555====eyyy338866655444",
"45444444444444444446ryyyeeeeqeeq555353555553=@+=eyyee37355545445",
"45444444444444444446ryyreeeeeeee555535535553#@+=eyyt373545444444",
"55554664564455555568ryyreeqqqeqq555555555553=#$=eyyyw37755555444",
"trtr0qqq0ww0qq0etrtttyyt84885555554454458qqq777qeeeewwqw0qwq5555",
"ttyteeqeeweeeeqettyytttt8444444455444445qeeeeeeewwewweweweww5544",
"yyyteeeeeeeeeeqettyyttyt8444444435445455qeeeeweeeweeeewwewew5445",
"ttttewwwwwweqeeetttttttt4444444455343445qeqqwewewwwwwwqqwwww5453",
";;;;%%&%*;;*;;;*********$$$$&*%*================----==--==%=%===",
"$@@$XoXo+@@@@@@@oooXoooXoooo@@@@+O@+++@@@@@@@=@+ooXXoXXXXXXo+@@@",
"@$@Ooooo@@@@@@@@oooooooooXoo@@@@@@@@@@@@$@@@@@@@ooXXXoXXXXoo@@@@",
"$$$$OOOO$$$$$$$$+oOoOoooOoOO@$$$$$$$@$@@@$$$$$$@OoooOOOOOOo+@$$@",
"700079999099000079962<1189774<225=5=$@@$<1112122333w877q7qq77q99",
"yyyyyyyyyyyyyyyyyyyy6645yyyt64445553$@@$25555555eeeyyyyyttyyyyyy",
"yyyyyyyyytytyyyyyyyr5446tytt84445553=@@$25445555weeeyyyytyyyyyyy",
"yyyytttyttttyyyyyyyr6456tyyt84445553=@@=45454435weeeyyyetyttyyyy",
"eree8656:***tyyyyyyyrerettyt4445eere77779qqq5555338888886677eeer",
"eeeq5444*++*0yyyyyyyyyyyytyt8448ryyyeewwewew5355q33853555555wewe",
"qeeq5444$@+*wyyyyyyyyyyyyyyt6445ryyreeweeeww5555337855355565wwee",
"eeeq6554*$**wtttrrryyyyyyytt6445ryyyeeeewwww55553q8358555536weee",
"ttttrtte444444565587rryyyyyr5555ryyyryyr8556qwwwrrrrrrrreerrryyr",
"yyyytyyt444444444555ryyyyyyr5555ryyyyyyr6455wweeryyytytyyyyyyyyy",
"yytytyyt544444445555yyyyyyrr5555ryyyyyyy6535qweetytyyyyyyyyyyyyy",
"tttttttt544444443445rryyyrrr5455ryryyrye5455qwwwrrtrttttryrryrry",
";;;:;;;;*******;####---->:,:%$$$========--==%--%OooO--#=====;:=:",
"@@@@@@@@@@@@****ooooXooo#%=#oXoo$$$+$$$%@@@@oXXX    XooXXoXo@@@@",
"$@@@@@@@$@@@##*@oooooXoo####Oooo$$@$+$$$@@@@oooX.   XooXoooo@@@@",
"@@@@@@$@@@@+**$*oooooooo#--#oooo@$@@$@@$@@@@oooo.   Xooooooo@@@@"
};
