/* XPM */
static char *_05e0964c9b0486f99b539b6a03513ffUzxAZSS4EIdwyQYF[] = {
/* columns rows colors chars-per-pixel */
"32 32 81 1 ",
"  c #257F21",
". c #278123",
"X c #247E1F",
"o c #167012",
"O c #298325",
"+ c #308A2C",
"@ c #2D8729",
"# c #2F892B",
"$ c #2A8426",
"% c #348E30",
"& c #2E882A",
"* c #237D1F",
"= c #177113",
"- c #197315",
"; c #358F31",
": c #146E10",
"> c #1B7517",
", c #328C2E",
"< c #2B8527",
"1 c #1D7719",
"2 c #217B1D",
"3 c #268022",
"4 c #268023",
"5 c #247E20",
"6 c #227C1E",
"7 c #207A1C",
"8 c #308A2B",
"9 c #288224",
"0 c #187214",
"q c #227C1D",
"w c #328C2F",
"e c #1C7518",
"r c #1D7718",
"t c #2B8526",
"y c #298324",
"u c #2E8829",
"i c #2C8628",
"p c #1F791B",
"a c #278124",
"s c #30892C",
"d c #166F14",
"f c #207A1B",
"g c #237D20",
"h c #247E21",
"j c #177114",
"k c #1E781A",
"l c #278122",
"z c #1A7416",
"x c #318B2D",
"c c #1E781B",
"v c #298326",
"b c #369032",
"n c #156F11",
"m c #1C7618",
"M c #257F20",
"N c #2D8728",
"B c #338D2F",
"V c #2A8427",
"C c #2C8627",
"Z c #2F892A",
"A c #116B0F",
"S c #1C7617",
"D c #237C1F",
"F c #399335",
"G c #308A2D",
"H c #389234",
"J c #197316",
"K c #126910",
"L c #1C7619",
"P c #227C1F",
"I c #136D11",
"U c #2D872A",
"Y c #2C8629",
"T c #1F791A",
"R c #217B1E",
"E c #136D0F",
"W c #268021",
"Q c #177112",
"! c #369033",
"~ c #1A7415",
"^ c white",
/* pixels */
" .Xo O+@#$%@&*=-@;:>,#O+.<$12343",
"5$3<* $3  *6;&7*8$3$O99&@ 9>0q.<",
"9w2@$3+3<e$ $%7rt@<@<+,yO=72.ui ",
"99pa@7i#sd%p2O9<q$3O&$ f2 6=Ou#*",
"p76356 $3iOg1 #hj=29&9q$i*<&%&17",
"5225# 7$i,5Op< Ok5=l33+&&ppi@;9r",
"6<$73p-Op3i 72*z<x$.c5v Oi<+Obt7",
"n5*7& kO2&$p29372p6692* 2....9*2",
"23&&b;,i OO20p5a6m7O*mO7z2M9@51 ",
"9<O1 +O5$k1p@+g265 29 ;+8 1z.i1.",
"<p 3p.x@zlN@B+O6*z.O5>*kxVii C.6",
"3$ *559 2<Bti*&2277pz*5<<@&..p*#",
"&<b9p099ZZ$m2=m * 337.km7$p.@O.1",
" p&#6*ppx&9B9A176pO5#2 <z9Ok%+$ ",
"-76*i<.5S.DF9GHi$3$<ik2.5*2255ii",
"666<k*6+3JK@9<+,9x#<*6m*-@@.6 6L",
"p6#PIU ***O8iOz,722239p2p zO>o-1",
"L#<3Yp2@+M38lkk*1<.$Opi@7m .67pp",
",@5xb.6 .1t.O2672mk$OO.z=z*#@O&&",
"B9k@;*TqO*...OiO+m.FO @7z3**i,<+",
"O+6 *1@VRUv=77129k3.55 6*1>9$O$,",
"Vi<B31Ok.96mz63O5.#20p127pE 9m $",
"32#,3766.176**#<7F*oz..O2k11$x5<",
"*-2i2727# 7&,+@3 $ 7* 6&6@&B<#0-",
"#.1699.5&O<@%#576i#2@< @O+i*.# >",
"xi5k5H<5x99@@;2#iO22$ O#6*56m*x9",
"2$ &<& WF$3.#;$<* k$#6*0:.5om7$$",
"&3*<XQ $*.#6 @7O <9$6 195*k5<k>-",
"B76m009*093719 3iiO<7x&$ n3+2-p2",
".p X !B.$20i 5i6.#53mOiO2E5*-.3m",
">~$,aB3o3 7p36&56; .zk55zp2k.93>",
"k36&b2=>z-z5#.O2&H@$29E61z9 pO2k"
};
