/* XPM */
static char *_9f36ab6f81d485bb39639d25958b47dZXRhwgYYauPoFs3n[] = {
/* columns rows colors chars-per-pixel */
"32 31 130 2 ",
"   c None",
".  c black",
"X  c #010101",
"o  c #000003",
"O  c #020202",
"+  c gray1",
"@  c #070703",
"#  c #000004",
"$  c #000105",
"%  c #010205",
"&  c #020304",
"*  c #020305",
"=  c #030305",
"-  c #020306",
";  c #030406",
":  c #040404",
">  c gray2",
",  c #040406",
"<  c #060606",
"1  c #090803",
"2  c gray3",
"3  c #080809",
"4  c #090909",
"5  c #141517",
"6  c #231E04",
"7  c #231F05",
"8  c #241F04",
"9  c #252003",
"0  c #2E2703",
"q  c #2E2704",
"w  c #372E02",
"e  c #372F02",
"r  c #342D06",
"t  c #3A3102",
"y  c #3D3402",
"u  c #3F3606",
"i  c #534602",
"p  c #544703",
"a  c #564802",
"s  c #665603",
"d  c #6B5A02",
"f  c #715F02",
"g  c #725F02",
"h  c #705F04",
"j  c #736002",
"k  c #746102",
"l  c #756202",
"z  c #887201",
"x  c #987F01",
"c  c #9B8202",
"v  c #A18701",
"b  c #A28801",
"n  c #A28802",
"m  c #AF9201",
"M  c #BB9D01",
"N  c #BD9E01",
"B  c #C2A200",
"V  c #CAA901",
"C  c #E2BD00",
"Z  c #E4BF00",
"A  c #E5C000",
"S  c #F1C900",
"D  c #F1CA00",
"F  c #F2CA00",
"G  c #F3CB00",
"H  c #F5CD00",
"J  c #FBD100",
"K  c #FBD200",
"L  c #FCD200",
"P  c #FCD300",
"I  c #FED400",
"U  c #FFD400",
"Y  c #FFD500",
"T  c #FFD501",
"R  c #FFD600",
"E  c gold",
"W  c #FFD800",
"Q  c #FFD900",
"!  c #FFDA00",
"~  c #FFDA03",
"^  c #FFDC00",
"/  c #FFD70A",
"(  c #FFD70E",
")  c #FFD812",
"_  c #FFD91A",
"`  c #FFDA1B",
"'  c #FFDA1F",
"]  c #FFDB22",
"[  c #FFDD2A",
"{  c #FFDD2D",
"}  c #FFDD31",
"|  c #FFDF36",
" . c #FFDF3D",
".. c #FFDF3E",
"X. c #FFE24F",
"o. c #FFE351",
"O. c #FFE252",
"+. c #FFE354",
"@. c #FFE358",
"#. c #FFE459",
"$. c #FFE565",
"%. c #FFE666",
"&. c #FFE76E",
"*. c #FFE873",
"=. c #FFE874",
"-. c #A5A5A5",
";. c #FFEC8B",
":. c #FFEC8C",
">. c #FFED90",
",. c #FFED91",
"<. c #FFED92",
"1. c #FFEF9F",
"2. c #FFF4BC",
"3. c #FFF4BE",
"4. c #FFF5C3",
"5. c #FFF7CD",
"6. c #FFF9DC",
"7. c #FFFAE0",
"8. c #FFFAE1",
"9. c #FFFAE3",
"0. c #FFFCEE",
"q. c #FFFDF5",
"w. c #FFFEF7",
"e. c #FFFEF8",
"r. c #FFFEF9",
"t. c #FFFEFB",
"y. c #FDFDFD",
"u. c #FFFFFD",
"i. c #FFFFFE",
"p. c white",
/* pixels */
"                                                                ",
"                                                                ",
"                                    O O                         ",
"                                < O O O                         ",
"                                O O O <                         ",
"                                O O   -.p.                      ",
"                                O <     p.p.                    ",
"                        ; ; ; ; O # # 5                         ",
"                        7 8 8 8 7 7 9 7                         ",
"                  # # < n A C C C C A n < ; #                   ",
"                q e t t B ~ [ | | [ Q B t e e 0                 ",
"              # j S S S J / 3.q.r.4.( J S S S j #               ",
"              # j Q { o.X.#.6.r.3.;./ I I Q Q k #               ",
"              # f Q <.p.r.r.p.6.] I I I Q I I j #               ",
"            u d m I <.p.p.p.p.9.' I I Q I I I m d u             ",
"          # a I I I <.p.p.p.p.9.' I I I I Q I I I a #           ",
"          # a L  .;.5.p.p.q.<.%.( I I I Q I I Q I a #           ",
"          # a L =.p.p.p.p.0.} I Q I I Q I I I I J a O           ",
"          # a L *.p.1.+.@.o.) I I I I I I I I I I a O           ",
"          # a L &.r.%.I I I Q I I I Q I Q I I I P a #           ",
"          # a I _  ._ I I I Q I Q I I Q I I I Q I a #           ",
"          # p A S I I I I I I I I I I I I I I S Z i #           ",
"              9 z Q Q I I Q I I I I I I Q I Q z 9               ",
"              # j Q I I I I I I Q I I Q I I Q j O               ",
"              # k Q I I I I Q Q Q Q I I I I Q k #               ",
"              ; s N C Q I I V M M V I I Q C N s #               ",
"                  1 x ^ Q H y @ @ y H Q ^ c 1                   ",
"                  < h n n c r ; ; r c n n d <                   ",
"                    4 O O <         < O ; 4                     ",
"                      4 4             4 4                       ",
"                                                                "
};
