/* XPM */
static char *_1dc9a2764a347e6ac7dd88a840547828eMbiHwQRZfcnoid[] = {
/* columns rows colors chars-per-pixel */
"32 32 256 2 ",
"   c None",
".  c black",
"X  c #050605",
"o  c #080809",
"O  c #0C0A0A",
"+  c #0C0B0B",
"@  c #0A0B0C",
"#  c #0C0C0E",
"$  c #0D0D0E",
"%  c #0E0E0E",
"&  c gray6",
"*  c #120A0E",
"=  c #0F0F10",
"-  c #101010",
";  c #111010",
":  c #101414",
">  c #171819",
",  c #2C0813",
"<  c #340D19",
"1  c #221B1F",
"2  c #2C1E23",
"3  c #3A1421",
"4  c #262124",
"5  c #222424",
"6  c #2B2226",
"7  c #352326",
"8  c #34262B",
"9  c #382B2A",
"0  c #382B2B",
"q  c #392B2F",
"w  c #3A2F33",
"e  c #3E3336",
"r  c #3B3436",
"t  c #3F3238",
"y  c #46071A",
"u  c #49071B",
"i  c #430819",
"p  c #412E35",
"a  c #473037",
"s  c #463535",
"d  c #423438",
"f  c #453439",
"g  c #42373D",
"h  c #493239",
"j  c #46383F",
"k  c #4D3938",
"l  c #4A383E",
"z  c #4B3A3F",
"x  c #503A3C",
"c  c #672A3D",
"v  c #57403D",
"b  c #59413E",
"n  c #3F3F40",
"m  c #4B3D44",
"M  c #503740",
"N  c #513E44",
"B  c #523F45",
"V  c #543C44",
"C  c #5B3D46",
"Z  c #6B3243",
"A  c #6E3748",
"S  c #793C4E",
"D  c #464646",
"F  c #4F4249",
"G  c #554248",
"H  c #57444A",
"J  c #5B4149",
"K  c #5C434B",
"L  c #5C444B",
"P  c #5A464D",
"I  c #50484B",
"U  c #5F4B52",
"Y  c #5E5F5F",
"T  c #634845",
"R  c #6A4D48",
"E  c #654E56",
"W  c #6B4954",
"Q  c #764E52",
"!  c #714E59",
"~  c #784F5C",
"^  c #665059",
"/  c #665159",
"(  c #755254",
")  c #7B5853",
"_  c #73575D",
"`  c #79515E",
"'  c #7A515E",
"]  c #7E5B58",
"[  c #6F5962",
"{  c #695C62",
"}  c #735861",
"|  c #745961",
" . c #775A60",
".. c #765A64",
"X. c #7A5C62",
"o. c #7A5C66",
"O. c #7B5D67",
"+. c #785E68",
"@. c #7B5E68",
"#. c #7B5F68",
"$. c #7C5F68",
"%. c #7D5F68",
"&. c #7D5F69",
"*. c #7F5E68",
"=. c #7F5F69",
"-. c #656565",
";. c #7D606A",
":. c #7F646F",
">. c #717171",
",. c #7B7B7F",
"<. c #84092F",
"1. c #850A30",
"2. c #8B0931",
"3. c #8E0A32",
"4. c #DA0C4C",
"5. c #E6084E",
"6. c #E7094F",
"7. c #E8094F",
"8. c #E40D51",
"9. c #FF0B59",
"0. c #FF0C59",
"q. c #E71153",
"w. c #FF115C",
"e. c #854C5F",
"r. c #825D55",
"t. c #835D57",
"y. c #845E58",
"u. c #88605C",
"i. c #8A625D",
"p. c #8A635D",
"a. c #89625E",
"s. c #8D645E",
"d. c #974F67",
"f. c #805965",
"g. c #805A66",
"h. c #825A67",
"j. c #855A67",
"k. c #855B68",
"l. c #855C68",
"z. c #865C68",
"x. c #865C69",
"c. c #885F6B",
"v. c #885F6C",
"b. c #905166",
"n. c #985369",
"m. c #90596B",
"M. c #A95872",
"N. c #AB5874",
"B. c #B25D79",
"V. c #87626E",
"C. c #83666F",
"Z. c #906660",
"A. c #946964",
"S. c #9B6E68",
"D. c #8F6675",
"F. c #8A6B76",
"G. c #8D6975",
"H. c #8C6E7A",
"J. c #936472",
"K. c #96727F",
"L. c #A1726B",
"P. c #A3736C",
"I. c #A5756C",
"U. c #A06C7C",
"Y. c #BF877C",
"T. c #C1887D",
"R. c #967480",
"E. c #9C7781",
"W. c #9E7A86",
"Q. c #BE6180",
"!. c #A47785",
"~. c #AA7283",
"^. c #A47E8A",
"/. c #A67F8B",
"(. c #A87B89",
"). c #AA7B8A",
"_. c #B47A8B",
"`. c #B77E91",
"'. c #C26F89",
"]. c #AF8393",
"[. c #B38090",
"{. c #B88393",
"}. c #B98998",
"|. c #BD8B9B",
" X c #BB8D9B",
".X c #BB8E9B",
"XX c #BAB1B4",
"oX c #B8B8BA",
"OX c #C58A80",
"+X c #CC8F84",
"@X c #CF9286",
"#X c #C18899",
"$X c #C0909F",
"%X c #D88BA6",
"&X c #C393A2",
"*X c #C494A3",
"=X c #C797A6",
"-X c #D09CAC",
";X c #D59FAF",
":X c #D99BAE",
">X c #D99FB0",
",X c #E39CB4",
"<X c #D2A0B0",
"1X c #D5A0B0",
"2X c #D7A1B2",
"3X c #DDA2B4",
"4X c #DAA5B6",
"5X c #DBA5B6",
"6X c #DCA5B7",
"7X c #EEA7BE",
"8X c #E1A9BB",
"9X c #E7A9BC",
"0X c #E3ACBE",
"qX c #E5ACBD",
"wX c #E6ADBF",
"eX c #F3A6BF",
"rX c #D6B9C3",
"tX c #EBAFC1",
"yX c #EDADC0",
"uX c #EDAEC1",
"iX c #EDB1C3",
"pX c #EEB2C5",
"aX c #EFB2C5",
"sX c #F1B1C5",
"dX c #F2B1C5",
"fX c #F0B3C6",
"gX c #F3B2C6",
"hX c #F0B5C7",
"jX c #F2B5C8",
"kX c #F5B6C9",
"lX c #F4B6CA",
"zX c #F4B7CA",
"xX c #F5B7CA",
"cX c #F6B7CA",
"vX c #F7B7CB",
"bX c #F8B7CB",
"nX c #F9B7CC",
"mX c #F4B8CA",
"MX c #F7B8CB",
"NX c #F7BACD",
"BX c #F8B9CC",
"VX c #F9B9CD",
"CX c #F9BACD",
"ZX c #FABACE",
"AX c #FCBBCF",
"SX c #FCBCCF",
"DX c #FDBCD0",
"FX c #FEBCD0",
"GX c #FEBDD1",
"HX c #FFBDD1",
"JX c #FFBED1",
"KX c #FFBED2",
"LX c #FFBED3",
"PX c #FFBFD3",
"IX c #FFBFD4",
"UX c #E2E5E4",
/* pixels */
"                                                                ",
"                                                                ",
"                                                                ",
"                                                                ",
"                            s R 9 T x                           ",
"                            b T.I.Y.y.                          ",
"                          q i.OX@X+XP.k                         ",
"                    m D.7 r.i.A.L.S.i.s.Q G.                    ",
"                    j %Xb.x ] s.) y.i.( '.`.                    ",
"          &         +.,X7X5X.XX._ _ E.6XeX[.          &         ",
"        = &       :.F...G H B l P ;.;.} B d o         - @       ",
"      > -       ^ wXpX8X| O . O P V.*.o.w X . 6 d       &       ",
"      D       C.wXGXGXGXhX*.q E c.d.d.n.f.l f $X&XI     -.m     ",
"            e -XGXAXGXAXGXCXhXV.B.N.M.'.e.*XMXGXpX;.  >.Y       ",
"          4 ^.MXGXGXAXGXGXAXGX2Xh.` ~ ~ !.lXGXGXPX.Xr 5 :       ",
"          W.NXGXGXAXGXAXAXGXGXiX/.;X:X>XNXGXSXSXSXMXL ,   3 *   ",
"          =XgXlXGXAXGXAXGXAXAXlX(.*.+.R.lXGXDXDXGXuXA 8.w.q.i   ",
"        oXrX:XgXGXGXAXGXAXGXSXGXDXCXCXCXDXDXDXDXGX3Xc 5.9.4.y   ",
"        UXXX|.GXAXGXGXAXGXAXGXAXDXDXDXDXDXDXDXDXGXlXS 5.9.3.    ",
"        { ,.H.NXGXAXAXGXAXGXAXGXDXDXDXDXDXDXDXDXGX0XZ 7.0.<.    ",
"      [ R.I g ;XGXGXGXDXGXAXGXAXDXDXDXDXDXDXDXGXpX*.< 1.2.u     ",
"      ! J ^ [.{.>XgXGXDXAXGXAXGXDXDXDXDXDXDXAXuX}.              ",
"      M v.(.*.J V v.9XlXnXnXbXCXnXnXnXnXnXuX#XW p               ",
"          8         f._.J.z.k.z.k.k.k.k.U.~.C                   ",
"                    1 h                 2 a                     ",
"                                                                ",
"                                                                ",
"                                                                ",
"                                                                ",
"                                                                ",
"                                                                ",
"                                                                "
};
