/* XPM */
static char *_807c643a1904321da20691ae13b79fdVkTSBiaf1dHhfaSH[] = {
/* columns rows colors chars-per-pixel */
"64 64 208 2 ",
"   c None",
".  c #000100",
"X  c #000C00",
"o  c #001400",
"O  c #001C01",
"+  c #001E14",
"@  c #002300",
"#  c #002C00",
"$  c #002D0C",
"%  c #003400",
"&  c #003C00",
"*  c #00390D",
"=  c #003A18",
"-  c #003615",
";  c #003722",
":  c #383D35",
">  c #004400",
",  c #004C01",
"<  c #004A0F",
"1  c #005400",
"2  c #005B00",
"3  c #00580C",
"4  c #004E1A",
"5  c #004618",
"6  c #005D1B",
"7  c #006301",
"8  c #006C00",
"9  c #006A0B",
"0  c #007400",
"q  c #007C00",
"w  c #007F0B",
"e  c #00720C",
"r  c #006313",
"t  c #00601D",
"y  c #006E1A",
"u  c #007B15",
"i  c #007A1A",
"p  c #007419",
"a  c #004421",
"s  c #004D23",
"d  c #004E2D",
"f  c #005321",
"g  c #005C24",
"h  c #00532A",
"j  c #005C29",
"k  c #004E30",
"l  c #1A4533",
"z  c #005431",
"x  c #38453C",
"c  c #2D513C",
"v  c #006324",
"b  c #006A24",
"n  c #00662C",
"m  c #007324",
"M  c #007D23",
"N  c #00732E",
"B  c #007B2C",
"V  c #006438",
"C  c #006A37",
"Z  c #007B37",
"A  c #007C3D",
"S  c #007436",
"D  c #1A673E",
"F  c #593746",
"G  c #0C6D48",
"H  c #28734F",
"J  c #414643",
"K  c #57444E",
"L  c #67535E",
"P  c #5C635E",
"I  c #7F7B78",
"U  c #008300",
"Y  c #008C00",
"T  c #00830A",
"R  c #008E0D",
"E  c #009300",
"W  c #009B01",
"Q  c #00980B",
"!  c #00821B",
"~  c #008A19",
"^  c #009E16",
"/  c #009B1C",
"(  c #009418",
")  c #00A300",
"_  c #00AD00",
"`  c #00A80B",
"'  c #00B300",
"]  c #00BC00",
"[  c #00B509",
"{  c #00A213",
"}  c #00A31C",
"|  c #00AA18",
" . c #00B115",
".. c #008324",
"X. c #008B24",
"o. c #00832F",
"O. c #008F2C",
"+. c #00942D",
"@. c #009824",
"#. c #008E3A",
"$. c #009633",
"%. c #00923D",
"&. c #009B3A",
"*. c #00A224",
"=. c #00A42B",
"-. c #00A82D",
";. c #00AF24",
":. c #00B523",
">. c #00B22F",
",. c #00BE2D",
"<. c #00BC21",
"1. c #00A432",
"2. c #00AD3B",
"3. c #00A938",
"4. c #00B43E",
"5. c #00BA3C",
"6. c #00B634",
"7. c #00C200",
"8. c #00CD00",
"9. c #00D200",
"0. c #00DF0D",
"q. c #00C717",
"w. c #00D210",
"e. c #00EB00",
"r. c #00E31D",
"t. c #00C329",
"y. c #00F03A",
"u. c #008B42",
"i. c #008649",
"p. c #009243",
"a. c #00944B",
"s. c #009B49",
"d. c #009B43",
"f. c #038756",
"g. c #009D5B",
"h. c #039658",
"j. c #3B8B5A",
"k. c #24955C",
"l. c #00AB45",
"z. c #00A54B",
"x. c #00AE4C",
"c. c #00A540",
"v. c #00B442",
"b. c #00BA44",
"n. c #00B14C",
"m. c #00BA4B",
"M. c #00A552",
"N. c #00AC52",
"B. c #00A95C",
"V. c #00BA56",
"C. c #00B35A",
"Z. c #039A69",
"A. c #169C6B",
"S. c #3F8660",
"D. c #329F72",
"F. c #308B73",
"G. c #00A465",
"H. c #00BD66",
"J. c #13A776",
"K. c #00B276",
"L. c #00B877",
"P. c #29B97B",
"I. c #33A565",
"U. c #508164",
"Y. c #489373",
"T. c #49A76D",
"R. c #4AA373",
"E. c #00C94E",
"W. c #00D548",
"Q. c #00CC5E",
"!. c #00C17B",
"~. c #00C56A",
"^. c #00F078",
"/. c #3BB082",
"(. c #7E9286",
"). c #51BF8B",
"_. c #76A98A",
"`. c #7CB192",
"'. c #7AAC91",
"]. c #00C480",
"[. c #34C789",
"{. c #00EE8C",
"}. c #22E098",
"|. c #00EFAA",
" X c #68C697",
".X c #74C79F",
"XX c #77EEB1",
"oX c #9B9896",
"OX c #93AF9F",
"+X c #8AB69C",
"@X c #92B59F",
"#X c #8BAF98",
"$X c #96ACA1",
"%X c #9AB6A5",
"&X c #A7B9AE",
"*X c #B5B7B5",
"=X c #A6A8A0",
"-X c #C3B6BC",
";X c #93C5B0",
":X c #98CBAC",
">X c #CDB4C8",
",X c #D8BDCB",
"<X c #EEB9D8",
"1X c #BDD5C9",
"2X c #CFC4CC",
"3X c #EACADD",
"4X c #FFD9F9",
"5X c #ECFFF2",
/* pixels */
"                                                                                                                                ",
"                                                                                                                                ",
"                                                /.z.U Y E ( J./.*X,XH.t.b.m.&.3 f.                                              ",
"                                              .XK.$.8 0 U Y Z.Z.*X<Xm.]  .:.U % m                                               ",
"                                                9 U ) W Y E 1.1.Z C [ 8._ E s.oX%X                                              ",
"                                                % 0 q._ E W _ ) 2 & ' e.' E G.<X2X                                              ",
"                                                Y 0 > , > 1 v.b.p r 2 1 1 % j.2X2X                                              ",
"                                                ] 8 . O X * H.~.S n @ . o . P 4X3X                                              ",
"                                                _ 0 o @ X @ >.,.U q # . o . V [..X                                              ",
"                                                ] 8 . . . . 7.8.) _ . . . . > ] 6.                                              ",
"                                                ' U % > 5 5 U U 8 7 s J - X 2 ] 5.                                              ",
"                                                v.2.E ;.^.Q.O . X . _.5XZ.% U ' ]                                               ",
"                                                4.1.U ~ V.d.O o o X U.&Xi.1 U ' 5.                                              ",
"                                                C.p.7 3 # @ . . . . O O 0 9.4.&X&X                                              ",
"                                                H.a.7 3 O o . . . . o . 0 9.4.$X%X                                              ",
"                                                 XG.m 6 . . . . . . . . 1 ] U 2 u.                                              ",
"                                                :XJ.b s . . . . . . . . , ] q > A                                               ",
"                                                [ :.t.~ . X o.o.f.S.$ . > 0 U W 3.                                              ",
"                                              E._ 8.y.| . @ W.W.}.XXf . & 1 U 7.t.                                              ",
"                                                U q U 0 > 1 A.D.Z Z , % 2 8 T E P.                                              ",
"                                                z.0 2 1 & > I I @ o 2 0 0 0 i u                                                 ",
"                                                m 7 U 0 & < (.(.# O , 1 M s.p 2                                                 ",
"                                                . # _ Y > n >X>X+ . % # Z.|.e O                                                 ",
"                                                O % ! w 0 0 T.T.> % , > B f...y                                                 ",
"                                                o o L D ' _ W E q 0 2 2 # . a.{.                                                ",
"                                                > > x h E Y E E q 0 8 7 > # B B.                                                ",
"                                                8.W o @ > 1 U Y Y Y U U 8 8 % .                                                 ",
"                                                ] Y @ % > , 0 0 U Y U U 0 0 > o                                                 ",
"                                                +.i h 4 > & # # 0 0 0 8 U E 7 %                                                 ",
"                                                @.u V v 1 > > > 8 0 0 0 U E 8 <                                                 ",
"                                                U Y K.M.E E 2.3.7 2 8 8 U U E -.                                                ",
"                                                Y Y K.N.E W b.4.7 2 8 8 q U Q >.                                                ",
"                                                5./ 1 1 2 7 1.-.W E 2 > g x $.:.                                                ",
"                                                E./ % & > 2 =.-.) ) 2 > h K %.<.                                                ",
"                                                G H _.R.N.z.n.l.) ) Y U j J 3 3                                                 ",
"                                                F L 1X:X].!.C.n.W W E Q v : & #                                                 ",
"                                                c d b M ' ' x.N.| { Y U u.Y.6 #                                                 ",
"                                                c * # 1 ] ] x.N.z.l.Y U M..Xb O                                                 ",
"                                                %.p > , 7 8 l.n.-.=.0 2 +.C.q 2                                                 ",
"                                                W.^ & & o & b.b.} ^ 2 % R 6.E U                                                 ",
"                                                w 8 8 7 5 4 n S g.B.r , 9 p 0 q                                                 ",
"                                                > > E q l l x x oX=XV < < & 8 0                                                 ",
"                                                w 0 U 0 G C - = s.N.U 0 7 > 0 U                                                 ",
"                                                6.W U Y L.B.. . W ' ' ] 8 % o.3.                                                ",
"                                                Z.u.q Y 2.1.7 9 a.g.Q Y T T =.=.                                                ",
"                                              T.j.+.W Y 0 T !.[.k.j.Y Y E T ..P.).                                              ",
"                                              7 0 q E 0 ; h OX%X0 8 q E 0 ; z #X@X                                              ",
"                                              0 0 U E 0 s j '.+XU 0 U E 0 a n '.+X                                              ",
"                                              0 0 q U 0 t b %X*XU 0 0 U 0 6 N %X*X                                              ",
"                                              0 U 0 0 8 v b -X,XU 0 0 0 8 6 C -X,X                                              ",
"                                              0 0 q Y q e i `.@Xq 8 U U q 9 M `.+X                                              ",
"                                              7 7 a.;XC.' ' ) W 8 2 g.;Xn.' _ ) {                                               ",
"                                              1 > g.1XH.' ' ) ) 7 > I.1XV.' ' ) )                                               ",
"                                              Y Y $.F.&.' _ { } Y Y p.F.&.' _ W }                                               ",
"                                              9.r.~ = u ] ' *.*.q.r.! = u 7.[ / =.                                              ",
"                                              7.w.X.k ..] ' } *.q.9...k X.7.' | -.                                              ",
"                                              & > O . O & & o o & > O . @ > & O @                                               ",
"                                              . o . . . O X . . X o . . . o . . .                                               ",
"                                              o @ . . . O O . . O O . . . @ O . .                                               ",
"                                              . . o # o . . O @ . . o # X . . O @                                               ",
"                                              . . X # o . . O @ . . o # X . . O #                                               ",
"                                                                                                                                ",
"                                                                                                                                ",
"                                                                                                                                "
};
