/* XPM */
static char *image[] = {
/* columns rows colors chars-per-pixel */
"32 32 134 2 ",
"   c #75451D",
".  c #79471E",
"X  c #7D4B1E",
"o  c #7C4C24",
"O  c #7D4E2B",
"+  c #7D522C",
"@  c #7F5330",
"#  c #814E24",
"$  c #834E2C",
"%  c #845126",
"&  c #8A5426",
"*  c #865827",
"=  c #8C5926",
"-  c #85542A",
";  c #8A562B",
":  c #87582D",
">  c #8C592D",
",  c #915727",
"<  c #905628",
"1  c #915B2D",
"2  c #855430",
"3  c #8A5631",
"4  c #845831",
"5  c #8D5B32",
"6  c #8D5D39",
"7  c #925F34",
"8  c #905F36",
"9  c #925E36",
"0  c #935F37",
"q  c #905C34",
"w  c #945F35",
"e  c #915E33",
"r  c #915D38",
"t  c #905E3B",
"y  c #905E39",
"u  c #8F6036",
"i  c #8E623C",
"p  c #936035",
"a  c #916037",
"s  c #926136",
"d  c #916236",
"f  c #936237",
"g  c #946136",
"h  c #966137",
"j  c #956237",
"k  c #976236",
"l  c #966635",
"z  c #946436",
"x  c #946235",
"c  c #986337",
"v  c #986635",
"b  c #9B6435",
"n  c #906038",
"m  c #916139",
"M  c #926138",
"N  c #936239",
"B  c #93633B",
"V  c #946038",
"C  c #956139",
"Z  c #976238",
"A  c #966338",
"S  c #94633A",
"D  c #96623A",
"F  c #956439",
"G  c #976439",
"H  c #95643B",
"J  c #96653A",
"K  c #97663B",
"L  c #96673B",
"P  c #94643C",
"I  c #95653D",
"U  c #96653C",
"Y  c #97663D",
"T  c #96663E",
"R  c #97673F",
"E  c #95633B",
"W  c #9A6539",
"Q  c #996639",
"!  c #98653A",
"~  c #99663B",
"^  c #9B663A",
"/  c #9A673A",
"(  c #98643C",
")  c #99653D",
"_  c #98673C",
"`  c #9A673C",
"'  c #98673E",
"]  c #98673F",
"[  c #9A663E",
"{  c #9B673F",
"}  c #99663B",
"|  c #97683E",
" . c #99683D",
".. c #9B683D",
"X. c #98693F",
"o. c #9A693E",
"O. c #9C693E",
"+. c #9B693D",
"@. c #A26D3E",
"#. c #966642",
"$. c #976945",
"%. c #986840",
"&. c #996941",
"*. c #9A6940",
"=. c #996A40",
"-. c #9B6A41",
";. c #9A6B41",
":. c #9E6B40",
">. c #9C6B42",
",. c #9C6D43",
"<. c #9E6D42",
"1. c #9C6C44",
"2. c #9D6E44",
"3. c #9E6F45",
"4. c #9E6E46",
"5. c #9D6C44",
"6. c #976C49",
"7. c #9E6D4C",
"8. c #9C6E4B",
"9. c #A16C40",
"0. c #A36E42",
"q. c #A46F43",
"w. c #A06F44",
"e. c #A26F44",
"r. c #A16F44",
"t. c #A37045",
"y. c #A57044",
"u. c #A67145",
"i. c #A57143",
"p. c #A97347",
"a. c #A97243",
"s. c #AA7448",
"d. c #AA7549",
"f. c #AA7448",
/* pixels */
"F o =.4 4 - 5 > ^ # *.4 5 - 5 ; Q # ) 4 4 : q ; Q o Y 5 2 > 5 - ",
"F - o u -.% q 5 e ; # 6 ( - 0 > e : $ S Y o 0 q 5 : - 3 &.o F - ",
": F - o o # % ; q 0 # # o o # q : ) - o o - & ; 5 Q % - % % % 5 ",
"% F Y 5 5 ) > Z : ) ( : 6 ) > e q Q q > q ( ; 0 % ..q 5 : X.: 5 ",
"; 5 # . - 5 q % & q $ . $ : e & ; ; # o - $ 1 ; ; q 3 . : : S - ",
"& e w.5 6 e e < ; ; -.S g ; 5 e % e w.q q 0 w ; ; ; @.q M : > e ",
"% X 0 5 5 # % f.& # Z ; ; ; ; @.& # g : ; - % 0.% % 0 3 : > % 0.",
"> Q - : ^ ; e 1 < ) ; : ^ : e 1 < ^ ; ; ) & q 1 > v ; ; ^ % e 1 ",
"F o w.4 2 : q : S # &.5 4 : M % S - ;.5 4 - q % b % ,.5 : 4 4 ; ",
"f : o S &.- q > e - # M Y % 5 5 e 4 o M &.o f e q - - 5 ,.o q ; ",
": F - o o # % ; q F 4 o o - % e > F - o o - % > > X.- o o - - > ",
"- F Y 5 q Z ; S ; 0 S : 5 Y % e > S P > q &.; g - Q q 5 > ) % f ",
"& 5 o X - > 1 & & q % o : : g ; ; > - . - 4 1 ; 1 > % . 4 4 g & ",
": > :.f M 5 q q # e ^ 6 q ; q ; % 1 t.q f q e > % : 9.4 M e e ; ",
"& X z 4 4 # # f.> X 0 > 6 # % a.; # f > 5 # % q.; # g f : % # f.",
"> / - - ^ > e < > b > - f > 1 e ; 9.- : Y - b 1 1 b ; - ) ; e 1 ",
"F % :.5 : 3 q ; S - X.6 4 : q % b o &.6 4 - q - v # 8.5 : : > - ",
"f - + 6 4.# 0 ; q : # B ) % 5 0 e : o S ) o f 5 q - X f =.O 5 ; ",
"- F - o o # - ; 5 g : o o - # > > F - o o - % > 5 X.& o O : - ; ",
"% / S q 4 #.& Z e g Y : M Y : g > g S : 5 X.- e ; S y 3 > l & 6 ",
"; : -   : ; 9 % & 5 % . : - q & ; > - o # 4 > ; = e - o : > e : ",
"; > t.5 f 1 q 1 % e @.6 S > g ; & > q.q q 0 e 1 - > O.> 6 5 q = ",
"& % u 5 : $ # f.% # e 4 5 % % q.; X q : 5 # % 0.: # x > q $ % @.",
"; v - - ^ & w 1 ; Q > > q q 1 e ; @.; : F ; b 5 & ^ 3 : j = e e ",
"b % ,.6 : ; > 3 b o 8.5 : & q 2 z o 8.5 : & e 4 Z # :.u : : 4 ; ",
"i & # 1 8.O q < u % X 0 $.2 q < u % X f $.$ e = S - # 6 4.o 6 ; ",
"4 ) % o o @ - < 5 X.& o O + - < 6 X.& o O - - ; 5 ) - o # : - > ",
"& | u i : b ; ( & F i 4 > b & 6 & Z #.4 : f - y % Q q 5 : F % e ",
", 4 +   ; ; e - > 5 : o ; 1 e : = e $ o - > e > > q - . 3 : g ; ",
": > @.> y 6 e , - > O.1 5 5 e , $ 1 @.> 6 6 > = % > w.5 y 5 e > ",
"- # e e 2 - # a.: X b > 5 + % a.- o v > 5 # % a.% # S y > % % a.",
"= j : + Q , e : & F + - Q > e - = ) - : b 1 e ; ; b & % X.; e % "
};
