/* XPM */
static char *result[] = {
/* columns rows colors chars-per-pixel */
"64 64 24 1 ",
"  c black",
". c gray73",
"X c #BBBBBB",
"o c #BCBCBC",
"O c gray74",
"+ c gray",
"@ c gray75",
"# c #C0C0C0",
"$ c #C1C1C1",
"% c gray76",
"& c #C3C3C3",
"* c gray77",
"= c #C5C5C5",
"- c #C6C6C6",
"; c gray78",
": c #C8C8C8",
"> c gray79",
", c #CACACA",
"< c #CBCBCB",
"1 c gray80",
"2 c #CDCDCD",
"3 c #CECECE",
"4 c gray81",
"5 c #D0D0D0",
/* pixels */
"=++OO+X+@++O                                                    ",
"*OOO+@o#++OO                                                    ",
"=+OoO+.O@@++                                                    ",
"=+OO@$O#++OO                                                    ",
"-@@$;<><<<<<                                                    ",
">$%=<5351111                                                    ",
",%$*<4123333                                                    ",
":##&,4131111                                                    ",
"=+++;;>-;$%%                                                    ",
"=@++;;>-*#%%                                                    ",
"*OOO--:=#+%$                                                    ",
"=+++;;>;*%&#                                                    ",
":%$$<<2,;*==                                                    ",
">&%&1131-*=,                                                    ",
">%%%1131;=*;                                                    ",
">&%&1141-==;                                                    ",
":%$%1131=%%*                                                    ",
":$$%<131*$$*                                                    ",
":$$$<131&$$*                                                    ",
":%$%1141=&&-                                                    ",
">%%&1242:--:                                                    ",
">&%&2252,::>                                                    ",
">&%&2242,>>,                                                    ",
">%%&1242>:>,                                                    ",
"-O#@,222>:-<                                                    ",
"*o++>222,:-,                                                    ",
"&XOO>222::;<                                                    ",
"*o++,232:>>1                                                    ",
";+##<3321211                                                    ",
">#%$<3323432                                                    ",
">#%$13322432                                                    ",
":#%#<3322432                                                    ",
":#&$13332223                                                    ",
":#&$13334443                                                    ",
":#&$<3324443                                                    ",
":#&$<3321111                                                    ",
":#%$<222>>::                                                    ",
":#%$<222;;-=                                                    ",
":#%$<221---=                                                    ",
":#%$<221---;                                                    ",
":#&$<332>;:,                                                    ",
";@%$<333,::<                                                    ",
":#&%1444,::,                                                    ",
":#%$<222:--;                                                    ",
"=O@O;::;=*&*                                                    ",
"=o+o=;-=%%%&                                                    ",
"-O@O-:;-%%%&                                                    ",
"=O@O-::;****                                                    ",
":#%$<222-::-                                                    ",
">$&%<332>>>;                                                    ",
">$*%1332,::;                                                    ",
",$*%1332,:::                                                    ",
">$&%1322,:>,                                                    ",
">$&%<221:;:,                                                    ",
">$&%<221:::>                                                    ",
",$*%<221>,<,                                                    ",
">$$*<524<<12                                                    ",
",%%*<4132223                                                    ",
">$%=<5351111                                                    ",
";##&:1,11111                                                    ",
"-@++#%+$++++                                                    ",
"*OOoOO.OOO++                                                    ",
"&OOo+@o@oooo                                                    ",
"=++OO+X+OOOO                                                    "
};
