/* XPM */
static char *_8e9c5ff95b84e89ec38d339dc71951ciJvK7xdplMVwwaK9[] = {
/* columns rows colors chars-per-pixel */
"64 64 33 1 ",
"  c None",
". c gray73",
"X c #BBBBBB",
"o c #BCBCBC",
"O c gray74",
"+ c gray",
"@ c gray75",
"# c #C0C0C0",
"$ c #C1C1C1",
"% c gray76",
"& c #C3C3C3",
"* c gray77",
"= c #C5C5C5",
"- c #C6C6C6",
"; c gray78",
": c #C8C8C8",
"> c gray79",
", c #CACACA",
"< c #CBCBCB",
"1 c gray80",
"2 c #CDCDCD",
"3 c #CECECE",
"4 c gray81",
"5 c #D0D0D0",
"6 c gray82",
"7 c #D2D2D2",
"8 c LightGray",
"9 c gray83",
"0 c #D5D5D5",
"q c gray84",
"w c #D7D7D7",
"e c #D8D8D8",
"r c gray85",
/* pixels */
"ooooooooo$ooooXXXXXXoooooooXooooooooooooXXXXXX..XXXXXXXXoooooooo",
"ooooooooooo$ooXXXXXXooooooXXooooooooooooXXXXXX..XXXXXXXXoooooooo",
"ooooooooooooXXXXXXXXoo$oXXXXooooooooooooXXXXX...XXXXXXXXoooooooo",
"oooooooo$o$ooooooooo$oo$oooooooooo$o$ooooooXXXXXXXXXoooXoooooooo",
"o$$$;,,,,,,,,,,,,,,,,,,,,,,,,,,,,,,,,,,,,,,,;,,,;$;$,,,,,,,,$$$o",
"$$$$,222,2,2,2,,2,,,2222222222222222222222222222;,;;22222222;o$$",
"o$$$2222,22,2,2222,2222222222222222222222222222,;;;;,222222,$$$o",
"$$o$,2,22,,2,2,,,,2,22,22222222222222,2222,22,22;;;;2,222,22$$$$",
"$ooo$;;,$$$$;$;$;$$;$$;$;,;,22222222;$;;$$;$$$$$$$$;;;;;,;;;oooo",
"oooo;;;$$$$$$$$$$$$$$$$$;;;;,222222,$$o$$$$$$$$$$$oo;$;;;;;;oooo",
"oooo$;;;$$$o$$$$$$$$$$$$;;;;22222222$$$$$$$$o$$o$o$$$;;;;;;;oooo",
"ooXX;;;;$$$$$$$$$$$$$$$$;;,,,22,2222;$$$$$$$$$$$$$$o;,,,;,;;$oo$",
"$$$$,,,,;$$;,$         ;8888,;;;,222;;;;;          ;899922,2$o$$",
"$$$$,22,;;;;8           9888;;;,,2,2;;;,            9999222,;$$$",
"$$$$,2,,;$;;9           9988,;;;,,22;;;;            99992222$$$$",
"$$$$,,2,;;$;9           e888,,;,222,,;;,            9e99822,;$$$",
"$$$$,2,2$$$;8           e99822222222;;;,            888822,2$$o$",
"$$$$,22,;$$$8           e99822222222;;;;            89882,2,$$$$",
"o$$$,2,2$$$;8           e99822222222,;;,            889922,2$$$o",
"$$o$,,2,$$$$2           99982222222,;;;,            8999222,$$$$",
"$$$$,22,;;;;9           e9982,,2,;;,;;$;            89992222;$$$",
"$$$$2222;;;;9           e998222,,;;;;$;;            99e92222$$$$",
"$$$;,222,;;,9           e98822,2;;;;$;;;            9e99222,;$$$",
"$$o$2222;;;,9           9998222,;;;;;;;,            99e92222$o$$",
"ooo$,,,,,;;,9eeeeeeeeeeee9998222,2,,22,2eeeee99ee9e999998,2,$ooo",
"oooo,222;;;;9e9e9e9ee9e9999922222,22222299ee99999999999822,,oooo",
"oooo,,22;;;;999e9ee9eee99998222222,,22229ee9999999999988222,$ooo",
"oooo,2,,;,;,9e9999e9999998882,2,,222222899999998998888882,,2$ooo",
"$$o$,2222,222222822222222222,;;,,22222222822222222282282222,$o$o",
"$o$$2222222222222222222,2222,;;;2222222222222222222222222222$$$$",
"$o$$,22222222222222222222222;;;,,222222222222222222222222222$$$$",
"$$$$22222222222222222,,22222;,;;2222222222222222222222222222$$$o",
"$$$$,222222222222222,22222222,222222222222222222222222222222$$o$",
"$$o$222222222222222222,,222222222222222222222222222222222222$$$$",
"o$$$,2222222222222222,2222222222222222222222222222222222222,$$$o",
"$$$$,2222,22,2,,,22,22,222222222222222,222,,,22,222222222222$$$$",
"$$$$,222;;;;;;;;,;;;;,;;2222,22,;;;;;,;;;;;;;$$;,;;,,,,22,,2$$$$",
"o$$$,,,,;;;$$;;;;$;;;;;;,22222,2;;;;;$$;;;$;$$$$;;;;,222222,$$$o",
"$$o$,22,;;;$$;;;$;$;;;;,22222,2,;;$;;$;;;$;$$$$$;;;;222,,22,$$$$",
"o$$$,2,,;$;;;;;;;;;;;,,,22222,2,;;;;;;;$;;;;;$$;;,,;,222,222$$o$",
"$$$$,222;;;;8           99882222,,2,;$;;            99992222$$o$",
"$$$$,222;;;,9           e9982222,,,2;;;;            99e92222$$$$",
"o$$$,222;;;;8           e99822222222;$;;            99e9822,;o$o",
"$$o$,2,2;;;;2           98992222,,2,;;$;            999922,2$$$$",
"$ooo;;;;;$$;,           8222,;,;222,$$$;            ,222;;;;oooo",
"oooo$;;;$$$$2           8882;;;;2,2,;$o;            2222;;;$oooo",
"oooo$;;$$$$$,           8222;;;,,22,$$$$            ,22,;;;;oooo",
"oooo;;;;$;$$2           9282,,;,2,,2$$$;            2222;;;,o$oo",
"$$$$,22,;;;;2           99982,2,222,;$$;            22882,2,$$$$",
"$$$$,222,;;;2           e99882222222;;;;            22222222;o$$",
"$$$$2222;;;;2           999822222222;;$,            2828222,$$$$",
"$$$$,22,;;;,899999999e9e9998222222,,;;;,9e9e9e99e99822822222;$$$",
"$$$$,222,;;;99e99e9ee9e99998222,;;;,,2229e9e999999998898222,$$$$",
"$$$$,2,2;;;;999ee9e99e9e99982,2,,;;;222299e99999999999982,2,$$$$",
"$$$$,,22;;;,9ee99e9ee9e9999822,,;;;;,2229e9e99999999999822,2;$$$",
"$$$;,22,,;;,99e9e999e99999992222,;;;222899999999988888882,2,$$$$",
"$$$$,222,,,,22222282222222222222,22,22222222222282222822222,;$$$",
"$$$$2222,2222222,2,22222222222222222222222222222222222222222$$$$",
"$$$$,222222,222,,222222222222222222222222,222222222222222222;$$$",
"$$$$,,,2,,,,,,2,,,,22,2,222,,2,2,,2,2,,2,,,222,,,,,2,,,22,,,$$$o",
"ooooo$$o$oo$o$$ooooo$oooo$$ooo$oo$$oo$o$oo$ooooXoooooo$o$ooooooo",
"ooooooooooooooooXXoooooXooooXXoXoooooooooooooXXXXXXXXXXXoooXXooo",
"ooooooooooooo$$oXXXXXXoXo$$oXXXXooooooooooooooXX..XXXXXXXXoXoooo",
"ooooooooooooooooXXXXXXooooooXXXoooooooooooooXoXX.XXXXXXXXXoooooo"
};
