/* XPM */
static char *f77fd446db1749b1a713513378253d07YgJL5Y6IHmqz01D1[] = {
/* columns rows colors chars-per-pixel */
"64 64 206 2 ",
"   c None",
".  c #000300",
"X  c #000B00",
"o  c #001100",
"O  c #001C00",
"+  c #002200",
"@  c #002B01",
"#  c #003300",
"$  c #003C00",
"%  c #00350A",
"&  c #002C15",
"*  c #003618",
"=  c #163D23",
"-  c #353F39",
";  c #004400",
":  c #004C01",
">  c #00430B",
",  c #005400",
"<  c #005C00",
"1  c #00590B",
"2  c #004911",
"3  c #005F1C",
"4  c #006300",
"5  c #006B00",
"6  c #00690D",
"7  c #007400",
"8  c #007C00",
"9  c #00720B",
"0  c #00780E",
"q  c #006A13",
"w  c #006513",
"e  c #007213",
"r  c #007A15",
"t  c #007B1C",
"y  c #005B2C",
"u  c #005425",
"i  c #005332",
"p  c #005A38",
"a  c #004227",
"s  c #006123",
"d  c #007723",
"f  c #007C23",
"g  c #00792C",
"h  c #006835",
"j  c #007C34",
"k  c #00763A",
"l  c #2B5040",
"z  c #006740",
"x  c #007F54",
"c  c #0E7C49",
"v  c #247047",
"b  c #435348",
"n  c #5A4951",
"m  c #436C55",
"M  c #557665",
"N  c #008300",
"B  c #008B00",
"V  c #00830C",
"C  c #008B0B",
"Z  c #009300",
"A  c #009B00",
"S  c #009B0D",
"D  c #008413",
"F  c #008B15",
"G  c #00821B",
"H  c #008D1C",
"J  c #009816",
"K  c #00931D",
"L  c #009B1B",
"P  c #00A201",
"I  c #00AC00",
"U  c #00A10B",
"Y  c #00AC0B",
"T  c #00B300",
"R  c #00BB00",
"E  c #00A413",
"W  c #00A31A",
"Q  c #00AC1C",
"!  c #00AA12",
"~  c #00B115",
"^  c #008323",
"/  c #008E23",
"(  c #00872D",
")  c #008C2A",
"_  c #009D23",
"`  c #009C2E",
"'  c #009427",
"]  c #008E33",
"[  c #00893A",
"{  c #009A3C",
"}  c #00A425",
"|  c #00AD23",
" . c #00A42C",
".. c #00AC2B",
"X. c #00B42C",
"o. c #00BF22",
"O. c #00A633",
"+. c #00AC35",
"@. c #00AC3C",
"#. c #00A53E",
"$. c #00B233",
"%. c #00B33B",
"&. c #00BA3C",
"*. c #00B935",
"=. c #00C400",
"-. c #00C900",
";. c #00D600",
":. c #00C03F",
">. c #008344",
",. c #008D4B",
"<. c #008845",
"1. c #009944",
"2. c #009B4B",
"3. c #009548",
"4. c #008352",
"5. c #009353",
"6. c #03985B",
"7. c #2E8B5A",
"8. c #00A34B",
"9. c #00AC46",
"0. c #00B443",
"q. c #00B44B",
"w. c #00BB4B",
"e. c #00AB52",
"r. c #00A85C",
"t. c #00B454",
"y. c #00B35C",
"u. c #00BA5D",
"i. c #00BB53",
"p. c #009666",
"a. c #1B9D68",
"s. c #379B71",
"d. c #34976D",
"f. c #00AD63",
"g. c #00A86A",
"h. c #00A367",
"j. c #00B364",
"k. c #00BD62",
"l. c #00B86A",
"z. c #00B569",
"x. c #00B376",
"c. c #00BD73",
"v. c #02B27B",
"b. c #00BD7D",
"n. c #00A87C",
"m. c #28B77E",
"M. c #3AB47B",
"N. c #4D9F76",
"B. c #589477",
"V. c #53A972",
"C. c #00C24A",
"Z. c #00C354",
"A. c #00C25C",
"S. c #00CA5A",
"D. c #00C267",
"F. c #00C974",
"G. c #00C373",
"H. c #00D47B",
"J. c #2FB880",
"K. c #559E84",
"L. c #46B985",
"P. c #52B383",
"I. c #5CBB87",
"U. c #66A884",
"Y. c #67B98B",
"T. c #77B794",
"R. c #72B38C",
"E. c #7CB8A3",
"W. c #00DF92",
"Q. c #00C68C",
"!. c #46C788",
"~. c #56C686",
"^. c #53CB93",
"/. c #76C79A",
"(. c #61C293",
"). c #6ECEA6",
"_. c #8DAB99",
"`. c #84BA9A",
"'. c #90AC9B",
"]. c #95B6A4",
"[. c #A9A7A7",
"{. c #ACB3AD",
"}. c #BAB6B5",
"|. c #B1B6B5",
" X c #C3B8BC",
".X c #C8ADBC",
"XX c #8BCA9D",
"oX c #86C5A7",
"OX c #99C3AA",
"+X c #B3C2B5",
"@X c #8DE3B2",
"#X c #CABEC5",
"$X c #D4BAC8",
"%X c #EDB6D8",
"&X c #F0B4D8",
"*X c #FFBFEB",
"=X c #ABD3C1",
"-X c #A6E9D0",
";X c #D5C7CC",
":X c #DDC3D3",
">X c #DDDCD6",
",X c #E4C4D7",
"<X c #E1DDD0",
"1X c #F8D4E7",
"2X c #FFDDF8",
"3X c #FFE3F8",
/* pixels */
"                                                                                                                                ",
"                                                                                                                                ",
"                                                w N.>XY.J 8.{.}.c.u.k.u.k.T.z.I I                                               ",
"                                              , $ p.>XL.Z O.}. Xc.Z.i.0.t.V.e.T I                                               ",
"                                              B.B.].1XY.Z ' 4.4.[ d 2.u.v.}.U.N 8                                               ",
"                                               X|.:X3X|.Z C , : ; # ,.G.`.%X[.< <                                               ",
"                                              T.`.P.V.j.P _ K.K.[ 8 ] ( a.$X_.N N                                               ",
"                                              ~.XX0.C A I %.2X3Xt.T 7 # c ;XT.Y P                                               ",
"                                              c.!.9.A ! I X.;X:X8.A H 7 5.%X`.A Z                                               ",
"                                              +.q.X.P T -.X. X$X3.V X.;.k.&X_.8 8                                               ",
"                                              t.j.0.X.X.R &.}.#X{ B Q -.k.&X'.B B                                               ",
"                                              {.}.].^.(.M.I.;X#XT T T I 9.1X].R R                                               ",
"                                              }..XOX).XXI.T.;X:XR T T I 0.*XOX-.-.                                              ",
"                                              {.#Xs.^ [ h k / H Z Z } e.M.,X].^ D                                               ",
"                                              {.;Xx : : & $ 8 8 8 8 1.n.T.2X}.p y                                               ",
"                                              +X;Xg.8 ] d.,.8 8 8 8 2.E.d.c x d t                                               ",
"                                              >X3Xb.Z q.@X!.7 7 7 5 7.%X7.# , / H                                               ",
"                                              Y.XXe.Z ` a.2.8 8 8 7 8.).6.5 8 J Z                                               ",
"                                              N B A T N $ , B B 8 5 } F.0.! Y R T                                               ",
"                                              8.^ K E C < 4 C N 8 7 L 0.} A A Z S                                               ",
"                                                M k N N 7 5 d g j >.: # @ o ; 9 p.                                              ",
"                                                U.[ 8 8 7 7 N V ] 2.; o X . @ K g.                                              ",
"                                                P.r.P Z 8 7 y y > $ $ # $ $ 6 W z.                                              ",
"                                                I.u.R I N 8 i l O . + @ ; 1 t | l.                                              ",
"                                                h f P Z s 3 % % ; : j p.F N Z A 0.                                              ",
"                                                @ : P C n n X . 2 1 n.-XC.T I Z Q                                               ",
"                                                7 7 7 5 i i < < 8 N / 2.Z A Z Z +.                                              ",
"                                                -.P ; ; * > I =.R =.8 , 8 N B A 0.                                              ",
"                                                8 5 $ : g d Z A A A 8 5 7 8 8 4 [                                               ",
"                                                # # @ : &.*.A Z B N 8 7 7 7 , . y                                               ",
"                                                < , # , +.O.B N N B 8 5 5 4 4 : >.                                              ",
"                                                Z 8 ; < +.O., ; 8 Z 9 z < $ 9 t.b.                                              ",
"                                                N 8 < 7 +. .q 6 8 N q i 1 ; r t.Q.                                              ",
"                                                : 5 i.q...@.L.T.m b & . ; < [ G.^.                                              ",
"                                                : 7 D.q... .M.Y.m b * X 2 q [ l.!.                                              ",
"                                                P T ).m.P A < : u * 6.b.g.N.r.W l.                                              ",
"                                                =.=.=X(.I A : $ 2 & h.W.J.R.h.A j.                                              ",
"                                                , < M v 4 < ; $ >.N._ P A P P J j.                                              ",
"                                                O + - a $ $ # # 6.(.A B A P A K j.                                              ",
"                                                5 7 B.7., , 5 5 8.v.A Z Z 8 B L y.                                              ",
"                                                Z A `.N., , B Z u.Q.P P N < N J e.                                              ",
"                                                4 N z.8.V N 5 4 r g N N N ] ' K j.                                              ",
"                                                ; q X...$. .: $ ; # 4 5 ) M.r.` x.                                              ",
"                                                7 N f.8.} L r e t d 7 7 C e.] 5 6.                                              ",
"                                                P P [.U._ W +.$.f.v.B 5 B +.8 O k                                               ",
"                                                 ._ 1.{ S S 5.6.h.x.B 8 B Q / p B.                                              ",
"                                              z.` 9.| E Z Z j j ` ` } $.} Z _ <.,.                                              ",
"                                              8 8 Q A.U N B N B N 8 U A...B B B N                                               ",
"                                              N 8 | S.P 8 N B B N 7 P S.Q N N B N                                               ",
"                                              } L F e F Q P N 8 Z W F f H U S N N                                               ",
"                                              q.0.q # ^ S.+.N 8 O.A.f $ q w.0.B 8                                               ",
"                                              @.+.e : G %.} 8 8  .w.G : e *.+.N 8                                               ",
"                                              U A 5 : 4 5 4 < < B ~ 8 : 4 5 5 4 4                                               ",
"                                              P A 4 , , : : < , Z I 7 : , : : < <                                               ",
"                                              E P 5 : 4 7 5 4 < Z ~ 8 : < 5 5 4 <                                               ",
"                                              0.%.5 $ N C.O.4 < _ C.8 $ 5 %.%.5 <                                               ",
"                                              %.$.< @ 0 A.+.< < _ C.7 @ 5 w.w.7 <                                               ",
"                                              0.%.N 5 B Q A < < ` Z.B 4 N W E 5 <                                               ",
"                                              t.u.T R P B N < , #.D.T R I B B 4 ,                                               ",
"                                              D.D.T I P Z B : : 9.H.R I P B Z < :                                               ",
"                                              G 0 A I A B B F F F f Z I P N B N D                                               ",
"                                              : : B I Z 8 B %.w.4 # 8 I A N N ..w.                                              ",
"                                              < , Z I Z N B O.@.5 ; N I A N B W @.                                              ",
"                                                                                                                                "
};
