/* XPM */
static char *result[] = {
/* columns rows colors chars-per-pixel */
"64 64 44 1 ",
"  c #372A17",
". c #372B18",
"X c #3B2E1B",
"o c #3E311E",
"O c #3F3220",
"+ c #42331E",
"@ c #433521",
"# c #463824",
"$ c #4B3C25",
"% c #4C3E28",
"& c #4F4029",
"* c #504027",
"= c #524229",
"- c #59472C",
"; c #5D4A2E",
": c #5F4C30",
"> c #624E2E",
", c #65502F",
"< c #634F30",
"1 c #665131",
"2 c #6A5534",
"3 c #6E5836",
"4 c #6E5938",
"5 c #705A37",
"6 c #735C3A",
"7 c #785F3C",
"8 c #7C623E",
"9 c #7F6540",
"0 c #82663D",
"q c #85693E",
"w c #8B6C3F",
"e c #816640",
"r c #866A41",
"t c #8B6E42",
"y c #906F40",
"u c #8F7145",
"i c #937446",
"p c #957649",
"a c #97784A",
"s c #9A7A4B",
"d c #9F7F50",
"f c #A07F4F",
"g c #A07F50",
"h c #A18150",
/* pixels */
"&%%%13334548asha%++#3567isst%##$<3333533322500ee6666eeee3337sfff",
"%##%12222334pasp$XX#1346uiit$+@@>>1,,,,,,2,27088434478e72116afsf",
"%##%,1223324pssp$XX+1445iiiu$+@#>,,,213,,1127e774434e7872226ssff",
"%###>2223244uppu$oX@2545ttiq%@##<23,1,,,21117ee7322478872114sssf",
"OOO@:1,14443$##+Ooo#riut-%%*;>>>tiiq$++$<115uppu-%--70e6-%%>ypps",
"#OO@;1,,4442o. XooO#tasi$+@@>,,3isst#Xo+<225assu%%%%7776$$$-upis",
"OOOO;,,,4452+  XX@+#tsay%+@@>111past#oo+<114pssi%%%-7076%$$-iiis",
"#OoO;,>,3433+  X+#+#taai$+@#>>,3isst#X++<214isst-%%%7706-$%-yiis",
"ooXo-:::11,>#oo@>><1iasu$oo+,,,2iast#oX+,1229ee7%%%=7886%$$-issf",
"oX X=:::>>,;#+@#<113isst$oo@>2,3iast+XX+>1,27976=%%=7886-$$-isss",
"X Xo-:::>,>>#@@@>113issi#oo@,,13iaat+oo+,1,37986%%%=7886$$$-isif",
"++o@=;-:>>,>#O@#>323uaat$ooo,,12iaat+oX+>,,270e7=$%%8997%$$>ysis",
"2,11&%#%>>>>@@O#58878ee8#oo+,113iaat++X+,115iiir++X$uaat$@@%0eer",
"6333&@##;>>;#oO@58978885#oo+,113iast+Xo+>2,3iast$+X$padu$@@$777e",
"4432*@$+;>>;@OO#58888887#oo@,1,3iaat+oX+<125isaw#X+$pddu$@@%779e",
"4442*##+>>,>$@@$79888887#+@@,123iiiw#Xo+1115isst+XX$iddu#O@%7e7e",
"4331#O@#<421<:>,78888897211<11126664#@@#1215psay#X+$idst@oX#7e7e",
"3221#OO#<442211288888897332421124441#@@#1225pssy++X$usst@XX#77ee",
"3222#OO#1424111178888887333311114442#@@#1226psft#XX$idst@oX#7e7e",
"4221&@@%1241211288098887322221114441#@@#1216pasy@X+$upst@XX#677e",
"4242:--:42441,>3iaai322211122222224:+X+@<222yyyq#++#7ee7@++#1225",
"4422:;::22221,,2issa31111,,,22222241+XX+1222wyyq#XX$7884@++#<112",
"4432::::23231,12issi5321,1,,22224221+++@1124www0++X#7886@++#,212",
"43231:::2213,212issi31111,1111114441+X+@1225qww0++X#7705@++#,,15",
"31316776-%==1444iaai2>>>,,2,#++#ety0+X++6776<;<-+  +7886@+o#2436",
"31126996=$%%1224uaii,>>>,2,,+XX@euyq++X+67e7<%;-   +67e4@oo#2446",
"31136996-$%%1445iaai,>>>,,,,@XX@riyq++X#6ee7;;;%+  +6e86@oo#2446",
"31219999=$$%1425iaai,->>3332+Xo#ryiq+XX+6e76;%%-+ .#6886@oO@2446",
"5323upau$++@1224issp%++#wipt$OO#tast+X.+6077>%%%>>>>7794OOO#2446",
"3233issp$o++1224issi$XX+wfsu%O@#usst+.X+5076$%%%>>,,9786#OO#2446",
"5323issi$o++<244asfi$XX#issi$OO#usst+ X+5007%$$%,,,17996#OO#4446",
"5333issi$+X+1424issi#+o#wiat$O@%riir+X++5000%$$%,1,26974OOOO4466",
"4114pdau&OO@2448iiiy$oX#2552#OX#2331#@+%wyiq++X+13223241++X#778e",
"3222uaap*OO@4444wait%@@#<12<#@@#<22<#@+%wipq++++22242321@++$788e",
"3224paap*oOO1448iiiw$@+#<22<@XO@<211#@@%tiiq+ ++22422221@++$788e",
"3114iaau$oOO4444ywir=$$%<<<>$##$122<@++%wypq++X+24243632@+X#788e",
"3213uhda-###11135557wrtq%###>111222<OXX@tipw%@@#1226uuyr#@@%788e",
"3223udaa&##%,1113345iiit%@@#>2222221O..@tppt#@@#2226uppq#@@#788e",
"3213adda-O#%;1112434yiit$@@#,33,2231+ .+tppr%@@#1224uppt#@@#788e",
"2111uaaa&%O#11124234iiit$O@#,3,,111%+++#taar%O@#2244iapr#@@%7eee",
"%#%%6999$OO@12221213iiaw#XX+-,,>@++@%<-1aggu#@@#1226psgt%@#%upua",
"%#O%4996$O@@122211,2uiaw+XX+>>,>+++@<%<1aggp#OO#1224asgt%@#%uppa",
"%@%%6996$OO#12221112iiaw+XXo-,,>++o+<<<1adgp#@@#1226asst%@@%yipp",
"%OO%6796$OO@:2222123iiai#XXo,2,,+oX+%<;2addp#OX#1224asfy#@O%ypps",
"@o+@4977$oo@;2124445issi%@@#taaro..+%<%4addu@OO@2326pspr+++$assf",
"@oo@6787$oO@,1114446assi%O@$usst+. X%<<1pddu@OX@1336ppsw+ +$pfaf",
"@oo@6886#oo@;1114447assi%@@#ussto..X>%<1addu@XX@1326ppar+..$pfsf",
"@oo@6ee8$oo+,1124445issu%@O%rpar+..+>><2adau#OO@2326uuye+++$yspf",
"+XX@raau#X +>,,12324psdu@ X+1441++++>,,2ppsr@X++<222,,,>+++%ippf",
"XX @tddi#  +-,112226pssu@  X1221++++>,,2iaat@XX@<222>>>>+++%ifyf",
"+XX@uaap#  X>1112235pssu+  +<221++++>,,2ipat@+X@<222>>>>+++$ipff",
"+XX@eppu$+++>1112225ypst#X +<22<$@+$>,,,yyue+XX@22222,,1$$$-qtqw",
"@@O@2644:---,32221217ee7%$$$33442222,>>,222,+XX@<223tyiyauar#+++",
"#+@#1442<:<:252521137877%%$-25445242>>>,111<+X+@2226iiipsfgu++ +",
"#@+@1444:;<<242521127e87-$$$25444242>>>>111>+X+@<224uiipsggu+  +",
"@+O@<4222<11<11<12227786%$$-<2126666,>,,3531++X+1224yuuuuty0++++",
"++ +>2,2uuit%+##12537087%%$$@@@#rtyt3113yapr++.+>,,27ee6$@+$><<1",
"   +>112uasu%++#12237787-$%$+o+@qiyy2113ysay+. +>,,177e5+++@<112",
"+  +>,13uaau%O+@,2237087%%%%OoO@qiyy3115pssw++.+>>,17e05++X+,113",
"++++>112ypit%++@,2227776-%%%+o+@0tww2213yyyw+.++>,,,6706@@+$1223",
"<%<>12117ee7#X++>>>,1222,21,@++@13323331322,+   >1121311>>,1077e",
"<>;>11227887#+o+>>>>22222,2,@++@12123333,2,>   +>1,,313,,,,1708e",
"<<<%12127886@oo+>>,,122112,>@++@<1212222,,,;   +>,2,1211,,117e8e",
"21122422eeee$@@@,2,225353252$#@$25356466222>++++132555533112eeee"
};
